<svg width="28" height="40" viewBox="0 0 28 40" fill="none" xmlns="http://www.w3.org/2000/svg">
<path d="M6.40987 5.52453H0.670185C0.492441 5.52453 0.321977 5.59707 0.196293 5.7262C0.0706089 5.85532 0 6.03045 0 6.21306V21.3015C0 21.4841 0.0706089 21.6592 0.196293 21.7884C0.321977 21.9175 0.492441 21.99 0.670185 21.99H6.40987C6.58762 21.99 6.75808 21.9175 6.88377 21.7884C7.00945 21.6592 7.08006 21.4841 7.08006 21.3015V20.076H7.73438C8.14662 20.0763 8.55825 20.1083 8.96585 20.1716L7.03482 22.8768C5.69216 24.7485 5.00436 27.0312 5.08299 29.3549C5.16162 31.6785 6.00206 33.9067 7.46799 35.678C8.5824 37.0335 9.97152 38.1225 11.5382 38.869C13.105 39.6156 14.8115 40.0015 16.5385 40C18.2655 40.0015 19.972 39.6155 21.5387 38.869C23.1054 38.1224 24.4945 37.0334 25.609 35.678C27.0749 33.9067 27.9153 31.6785 27.9939 29.3549C28.0726 27.0313 27.3848 24.7485 26.0422 22.8768L24.0927 20.1457C24.0927 20.1288 24.0952 20.1125 24.0952 20.0957C24.0954 19.6397 23.9646 19.1938 23.719 18.814C24.0183 18.6323 24.273 18.3824 24.4634 18.0835C24.6537 17.7847 24.7746 17.4448 24.8167 17.0903C24.8588 16.7357 24.821 16.376 24.7062 16.0389C24.5914 15.7017 24.4027 15.3962 24.1546 15.146C24.5846 14.7042 24.8282 14.1063 24.8329 13.4816C24.8376 12.8568 24.603 12.2552 24.1797 11.8066C24.4505 11.5351 24.6473 11.1954 24.7507 10.8214C24.854 10.4474 24.8602 10.0522 24.7686 9.67496C24.6771 9.29776 24.491 8.95175 24.2289 8.67138C23.9667 8.39101 23.6377 8.18605 23.2745 8.07689C24.3545 7.47374 25.0145 6.1986 25.0145 4.53615V4.47304C25.0145 4.29043 24.9439 4.1153 24.8183 3.98618C24.6926 3.85705 24.5221 3.78451 24.3444 3.78451H22.2084C22.5693 2.87408 23.0033 1.99608 23.506 1.15963C23.5683 1.05585 23.6027 0.936918 23.6056 0.814999C23.6086 0.693081 23.5799 0.57255 23.5226 0.465734C23.4654 0.358919 23.3815 0.269652 23.2796 0.207063C23.1777 0.144475 23.0615 0.110811 22.9428 0.109514L12.8286 3.8916e-05C12.7081 -0.00127671 12.5895 0.0307876 12.4853 0.0928579C12.3811 0.154928 12.2951 0.24471 12.2364 0.352756C12.1776 0.460802 12.1483 0.583118 12.1515 0.706834C12.1547 0.83055 12.1903 0.951092 12.2546 1.05578L12.9058 2.1176C13.2354 2.65561 13.5355 3.21216 13.8047 3.78463H13.2217C10.8592 3.78463 10.2759 5.58386 9.96253 6.5502C9.91336 6.71574 9.8545 6.87807 9.78627 7.0363C9.08961 7.4742 8.45439 7.68719 7.84608 7.68719H7.08006V6.21306C7.08006 6.03045 7.00945 5.85532 6.88377 5.7262C6.75808 5.59707 6.58762 5.52453 6.40987 5.52453ZM5.73969 20.613H1.34037V6.90158H5.73969V20.613ZM24.9612 23.6913C26.125 25.3137 26.7211 27.2925 26.653 29.3068C26.5848 31.321 25.8563 33.2525 24.5856 34.788C23.596 35.9895 22.3634 36.955 20.9736 37.6172C19.5839 38.2794 18.0703 38.6225 16.5383 38.6225C15.0063 38.6225 13.4927 38.2794 12.1029 37.6172C10.7131 36.955 9.48049 35.9895 8.49091 34.788C7.22022 33.2525 6.49172 31.321 6.42358 29.3067C6.35543 27.2925 6.95164 25.3137 8.1155 23.6913L10.3771 20.5228C10.9471 20.7205 11.4944 20.9815 12.0093 21.3013C10.3598 22.7323 10.4559 24.9525 10.7923 26.047C10.8465 26.2203 10.9653 26.3644 11.1227 26.448C11.2801 26.5315 11.4632 26.5477 11.6321 26.4929C11.801 26.4381 11.942 26.3168 12.0241 26.1556C12.1063 25.9943 12.1229 25.8063 12.0705 25.6324C11.9498 25.1663 11.9115 24.6817 11.9573 24.2017C11.9918 23.733 12.1446 23.2817 12.4004 22.8921C12.6563 22.5025 13.0066 22.1881 13.4167 21.9798C14.6049 22.3796 15.8664 22.4246 17.1564 22.4246H18.718L18.8776 22.7203C19.4762 23.8286 19.7508 25.0907 19.6686 26.3554L19.6551 26.5662C19.6493 26.6564 19.6608 26.7469 19.6891 26.8326C19.7173 26.9182 19.7617 26.9973 19.8197 27.0653C19.8777 27.1333 19.9481 27.1889 20.027 27.229C20.1059 27.269 20.1918 27.2927 20.2796 27.2987C20.2945 27.2997 20.3095 27.3002 20.3243 27.3002C20.4942 27.3 20.6577 27.2335 20.7817 27.1142C20.9057 26.9949 20.981 26.8317 20.9923 26.6575L21.0059 26.4467C21.094 25.0888 20.8416 23.7304 20.2729 22.5013C20.6599 22.6527 21.833 23.3089 22.0551 25.733C22.0707 25.9035 22.1477 26.062 22.2709 26.1774C22.3942 26.2928 22.5549 26.3568 22.7216 26.357C22.7426 26.357 22.764 26.356 22.7853 26.3539C22.9622 26.3368 23.1253 26.2481 23.2387 26.1075C23.352 25.9668 23.4063 25.7857 23.3897 25.6039C23.2489 24.069 22.7846 23.0531 22.2615 22.3812C22.7425 22.2841 23.1797 22.0293 23.5076 21.6551L24.9612 23.6913ZM23.6283 5.16156C23.5098 5.96392 23.1009 7.08335 21.7432 7.08335H21.2556C21.3772 6.43418 21.5341 5.79253 21.7257 5.16145L23.6283 5.16156ZM14.5861 1.39625C14.6106 1.41084 14.6359 1.42383 14.662 1.43515C15.7221 1.88671 16.5737 3.30025 16.4144 4.34371C16.4008 4.43305 16.4044 4.52428 16.4251 4.61218C16.4458 4.70008 16.4831 4.78293 16.535 4.856C16.5868 4.92907 16.6522 4.99093 16.7274 5.03804C16.8025 5.08515 16.8859 5.1166 16.9729 5.13058C17.0075 5.13614 17.0425 5.13894 17.0775 5.13896C17.2372 5.13874 17.3915 5.08 17.5127 4.9733C17.6339 4.8666 17.7141 4.71895 17.7388 4.55692C17.899 3.50715 17.5011 2.32806 16.7782 1.41989L18.8965 1.44284C18.6708 2.11702 18.4729 3.06007 18.6442 4.03732C18.6757 4.21703 18.7754 4.37653 18.9214 4.48072C19.0674 4.58492 19.2476 4.62527 19.4226 4.5929C19.5975 4.56053 19.7528 4.4581 19.8542 4.30813C19.9556 4.15817 19.9949 3.97295 19.9634 3.79324C19.801 2.8666 20.1251 1.92951 20.33 1.45833L21.7839 1.47406C20.7968 3.36974 20.131 5.42423 19.815 7.54948L19.7414 8.04097L16.8652 8.09583C16.7945 8.08948 16.7257 8.06857 16.663 8.03434C16.6003 8.00012 16.545 7.95328 16.5003 7.89661C16.097 5.58546 15.2628 3.37613 14.0437 1.39006L14.5861 1.39625ZM7.84608 9.06435C8.72849 9.06435 9.61392 8.77161 10.5514 8.16927C10.929 7.92679 11.0705 7.4905 11.2343 6.98535C11.5806 5.91745 11.9257 5.16145 13.2217 5.16145H14.3807C14.6151 5.79943 14.8117 6.45144 14.9693 7.11387V7.53996C14.9693 7.56492 14.9706 7.58986 14.9733 7.61466C15.0821 8.63919 15.933 9.47276 16.87 9.47276H16.8824L22.6683 9.36237C22.8884 9.3631 23.0993 9.45363 23.2544 9.61404C23.4095 9.77446 23.4963 9.99161 23.4956 10.2177C23.4949 10.4439 23.4067 10.6605 23.2506 10.8198C23.0945 10.9792 22.8831 11.0683 22.663 11.0676H21.2825C21.2511 11.0679 21.2198 11.0704 21.1887 11.0751H20.3017C20.124 11.0751 19.9535 11.1476 19.8278 11.2767C19.7021 11.4059 19.6315 11.581 19.6315 11.7636C19.6315 11.9462 19.7021 12.1213 19.8278 12.2505C19.9535 12.3796 20.124 12.4521 20.3017 12.4521H22.5102C22.7709 12.4521 23.021 12.5585 23.2054 12.748C23.3898 12.9374 23.4934 13.1943 23.4934 13.4622C23.4934 13.7301 23.3898 13.9871 23.2054 14.1765C23.021 14.3659 22.7709 14.4724 22.5102 14.4724H20.3017C20.124 14.4724 19.9535 14.5449 19.8278 14.674C19.7021 14.8032 19.6315 14.9783 19.6315 15.1609C19.6315 15.3435 19.7021 15.5186 19.8278 15.6478C19.9535 15.7769 20.124 15.8494 20.3017 15.8494H22.5597C22.8054 15.8522 23.0402 15.9544 23.213 16.1339C23.3859 16.3134 23.4828 16.5557 23.4828 16.8082C23.4828 17.0607 23.3859 17.303 23.213 17.4826C23.0402 17.6621 22.8054 17.7643 22.5597 17.7671H19.3037C19.1259 17.7671 18.9555 17.8396 18.8298 17.9687C18.7041 18.0979 18.6335 18.273 18.6335 18.4556C18.6335 18.6382 18.7041 18.8133 18.8298 18.9425C18.9555 19.0716 19.1259 19.1441 19.3037 19.1441H21.828C22.072 19.1469 22.305 19.2484 22.4766 19.4266C22.6482 19.6048 22.7444 19.8453 22.7444 20.0959C22.7444 20.3466 22.6482 20.5871 22.4766 20.7653C22.305 20.9435 22.072 21.045 21.828 21.0478H17.1564C15.5156 21.0478 14.0551 20.9826 12.7986 20.1817C11.2781 19.2121 9.524 18.6986 7.73438 18.699H7.08006V9.06435H7.84608Z" fill="white"/>
<path d="M16.8706 29.4512C17.0951 29.4514 17.3104 29.5432 17.4691 29.7063C17.6279 29.8693 17.7172 30.0905 17.7175 30.3212C17.7175 30.5038 17.7881 30.6789 17.9138 30.808C18.0394 30.9372 18.2099 31.0097 18.3876 31.0097C18.5654 31.0097 18.7359 30.9372 18.8615 30.808C18.9872 30.6789 19.0578 30.5038 19.0578 30.3212C19.0571 29.8459 18.9099 29.3832 18.6373 28.9992C18.3648 28.6152 17.9809 28.3297 17.5408 28.1836V27.9069C17.5408 27.7243 17.4701 27.5491 17.3445 27.42C17.2188 27.2909 17.0483 27.2183 16.8706 27.2183C16.6928 27.2183 16.5224 27.2909 16.3967 27.42C16.271 27.5491 16.2004 27.7243 16.2004 27.9069V28.1836C15.7041 28.3476 15.2812 28.6883 15.0079 29.1443C14.7345 29.6004 14.6287 30.1417 14.7096 30.6708C14.7905 31.1999 15.0526 31.6818 15.4489 32.0299C15.8451 32.3779 16.3493 32.569 16.8706 32.5689C16.9817 32.5681 17.092 32.5899 17.195 32.6329C17.2979 32.6759 17.3917 32.7393 17.4708 32.8195C17.5499 32.8998 17.6129 32.9952 17.6561 33.1005C17.6994 33.2057 17.722 33.3186 17.7227 33.4328C17.7234 33.5471 17.7023 33.6603 17.6604 33.7661C17.6185 33.8719 17.5568 33.9682 17.4787 34.0495C17.4006 34.1308 17.3077 34.1955 17.2053 34.2399C17.1028 34.2843 16.9929 34.3075 16.8817 34.3083C16.8781 34.3083 16.8746 34.3083 16.8706 34.3083C16.8665 34.3083 16.8635 34.3083 16.8594 34.3083C16.6368 34.3052 16.4244 34.2123 16.2679 34.0496C16.1115 33.8869 16.0236 33.6675 16.0233 33.4388C16.0233 33.2562 15.9527 33.0811 15.8271 32.952C15.7014 32.8228 15.5309 32.7503 15.3532 32.7503C15.1754 32.7503 15.0049 32.8228 14.8793 32.952C14.7536 33.0811 14.683 33.2562 14.683 33.4388C14.6836 33.9141 14.8308 34.377 15.1033 34.7611C15.3758 35.1453 15.7597 35.4309 16.1999 35.577V35.9246C16.1999 36.1072 16.2705 36.2823 16.3962 36.4115C16.5219 36.5406 16.6924 36.6131 16.8701 36.6131C17.0479 36.6131 17.2183 36.5406 17.344 36.4115C17.4697 36.2823 17.5403 36.1072 17.5403 35.9246V35.577C18.0366 35.4131 18.4595 35.0724 18.7328 34.6163C19.0062 34.1603 19.112 33.619 19.0311 33.0899C18.9502 32.5608 18.6881 32.0788 18.2918 31.7308C17.8956 31.3828 17.3914 31.1916 16.8701 31.1918C16.6472 31.1892 16.4343 31.0964 16.2776 30.9335C16.1209 30.7706 16.033 30.5508 16.033 30.3218C16.033 30.0928 16.1209 29.873 16.2776 29.7101C16.4343 29.5472 16.6477 29.4538 16.8706 29.4512Z" fill="white"/>
</svg>
