<svg width="622" height="795" viewBox="0 0 622 795" fill="none" xmlns="http://www.w3.org/2000/svg">
<g opacity="0.05">
<path d="M342.303 68.2139L553.781 279.693L424.628 408.852L458.734 442.959L622 279.693L342.305 0L307.814 34.4931L341.919 68.5986L342.303 68.2139Z" fill="white"/>
<path d="M279.696 726.583L68.2156 515.102L197.375 385.943L163.268 351.836L0 515.105L279.694 794.798L314.189 760.304L280.083 726.197L279.696 726.583Z" fill="white"/>
<path d="M286.179 406.531L286.1 406.611L389.574 510.085C403.712 524.224 411.654 543.4 411.654 563.394C411.654 583.389 403.711 602.565 389.574 616.704L314.19 692.088L348.296 726.194L423.68 650.81C446.587 627.889 459.574 596.886 459.843 564.482C460.112 532.077 447.642 500.863 425.119 477.565C424.618 477.047 424.192 476.486 423.683 475.976L407.648 459.941L335.905 388.198L232.424 284.717C218.285 270.577 210.342 251.4 210.342 231.404C210.342 211.409 218.285 192.232 232.424 178.092L307.808 102.708L273.702 68.6023L198.318 143.986C175.421 166.898 162.434 197.885 162.155 230.277C161.876 262.668 174.326 293.874 196.826 317.178L197.375 317.727L286.179 406.531Z" fill="white"/>
</g>
</svg>
