<svg width="27" height="27" viewBox="0 0 27 27" fill="none" xmlns="http://www.w3.org/2000/svg">
<path d="M6.59945 0.755615C6.1434 0.755615 5.77469 1.12109 5.77469 1.57133V3.20212H2.20004C0.984652 3.20212 0 4.17498 0 5.37562V24.6694C0 25.8709 0.984652 26.8442 2.20004 26.8442H24.1984C25.4134 26.8442 26.3978 25.8709 26.3978 24.6694V5.37562C26.3978 4.17498 25.4134 3.20212 24.1984 3.20212H20.6231V1.57133C20.6231 1.12109 20.2544 0.755615 19.7984 0.755615C19.3423 0.755615 18.9736 1.12109 18.9736 1.57133V3.20212H14.0237V1.57133C14.0237 1.12109 13.655 0.755615 13.1989 0.755615C12.7433 0.755615 12.3735 1.12109 12.3735 1.57133V3.20212H7.42422V1.57133C7.42422 1.12109 7.05505 0.755615 6.59945 0.755615ZM2.20004 4.83224H5.77469V6.46302C5.77469 6.91371 6.1434 7.27808 6.59945 7.27808C7.05505 7.27808 7.42422 6.91371 7.42422 6.46302V4.83224H12.3735V6.46302C12.3735 6.91371 12.7433 7.27808 13.1989 7.27808C13.655 7.27808 14.0237 6.91371 14.0237 6.46302V4.83224H18.9736V6.46302C18.9736 6.91371 19.3423 7.27808 19.7984 7.27808C20.2544 7.27808 20.6231 6.91371 20.6231 6.46302V4.83224H24.1984C24.5013 4.83224 24.7476 5.07546 24.7476 5.37562V24.6694C24.7476 24.9695 24.5013 25.2127 24.1984 25.2127H2.20004C1.89676 25.2127 1.64953 24.9695 1.64953 24.6694V5.37562C1.64953 5.07546 1.89676 4.83224 2.20004 4.83224ZM5.77469 10.539V12.9848H9.07375V10.539H5.77469ZM11.5494 10.539V12.9848H14.8484V10.539H11.5494ZM17.3234 10.539V12.9848H20.6231V10.539H17.3234ZM5.77469 14.615V17.0608H9.07375V14.615H5.77469ZM11.5494 14.615V17.0608H14.8484V14.615H11.5494ZM17.3234 14.615V17.0608H20.6231V14.615H17.3234ZM5.77469 18.6916V21.1374H9.07375V18.6916H5.77469ZM11.5494 18.6916V21.1374H14.8484V18.6916H11.5494ZM17.3234 18.6916V21.1374H20.6231V18.6916H17.3234Z" fill="#918BC5"/>
</svg>
