<svg width="32" height="24" viewBox="0 0 32 24" fill="none" xmlns="http://www.w3.org/2000/svg">
<path d="M30.2812 6.47758H25.7989L25.0575 1.46637C24.9901 1.02915 24.7542 0.591928 24.3834 0.32287C24.0127 0.0538118 23.5746 -0.0470852 23.1028 0.0201794L1.46635 3.18161C1.02822 3.24888 0.623806 3.4843 0.354193 3.85426C0.0845799 4.22422 -0.0502266 4.66144 0.0171766 5.13229L2.07297 19.0897C2.14038 19.5269 2.37629 19.9305 2.74701 20.1996C3.05032 20.435 3.42104 20.5359 3.75805 20.5359C3.82546 20.5359 3.92656 20.5359 4.02767 20.5359L6.69009 20.1323V22.2848C6.69009 23.2265 7.46523 24 8.40888 24H30.2812C31.2249 24 32 23.2265 32 22.2848V8.15919C32 7.21749 31.2249 6.47758 30.2812 6.47758ZM29.9442 11.7825H8.74589V8.49551H29.9442V11.7825ZM4.06137 18.4507L2.07297 5.13229L23.0691 2.07175L23.7094 6.47758H8.40888C7.46523 6.47758 6.69009 7.25112 6.69009 8.19283V18.0807L4.06137 18.4507ZM8.74589 21.9484V14.1794H29.9442V21.9484H8.74589Z" fill="#918BC5"/>
<path d="M25.9 16.2309C25.3271 16.2309 24.7879 16.5 24.4508 16.9372C24.1138 16.5 23.6083 16.2309 23.0017 16.2309C21.9906 16.2309 21.1481 17.0717 21.1481 18.0807C21.1481 19.0897 21.9906 19.9305 23.0017 19.9305C23.5746 19.9305 24.1138 19.6614 24.4508 19.2242C24.7879 19.6614 25.2934 19.9305 25.9 19.9305C26.9111 19.9305 27.7536 19.0897 27.7536 18.0807C27.7873 17.0381 26.9448 16.2309 25.9 16.2309Z" fill="#918BC5"/>
</svg>
