<svg width="16" height="16" viewBox="0 0 16 16" fill="none" xmlns="http://www.w3.org/2000/svg">
<path d="M1.14286 16C0.850446 16 0.558036 15.8884 0.334821 15.6652C-0.111607 15.2188 -0.111607 14.4955 0.334821 14.0491L14.0491 0.334821C14.4955 -0.111607 15.2188 -0.111607 15.6652 0.334821C16.1116 0.78125 16.1116 1.50446 15.6652 1.95089L1.95089 15.6652C1.72768 15.8884 1.43527 16 1.14286 16Z" fill="#000000"/>
<path d="M14.8571 16C14.5647 16 14.2723 15.8884 14.0491 15.6652L0.334821 1.95089C-0.111607 1.50446 -0.111607 0.78125 0.334821 0.334821C0.78125 -0.111607 1.50446 -0.111607 1.95089 0.334821L15.6652 14.0491C16.1116 14.4955 16.1116 15.2188 15.6652 15.6652C15.442 15.8884 15.1496 16 14.8571 16Z" fill="#000000"/>
</svg>
