<svg width="35" height="35" viewBox="0 0 35 35" fill="none" xmlns="http://www.w3.org/2000/svg">
<rect width="35" height="35" rx="6" fill="white"/>
<path d="M11.9286 23.2553C11.691 23.2553 11.4534 23.1698 11.272 22.9988C10.9093 22.6569 10.9093 22.1029 11.272 21.761L22.4149 11.2564C22.7776 10.9144 23.3652 10.9144 23.728 11.2564C24.0907 11.5983 24.0907 12.1523 23.728 12.4942L12.5851 22.9988C12.4037 23.1698 12.1662 23.2553 11.9286 23.2553Z" fill="#EE2654"/>
<path d="M23.0714 23.2553C22.8338 23.2553 22.5963 23.1698 22.4149 22.9988L11.272 12.4942C10.9093 12.1523 10.9093 11.5983 11.272 11.2564C11.6348 10.9144 12.2224 10.9144 12.5851 11.2564L23.728 21.761C24.0907 22.1029 24.0907 22.6569 23.728 22.9988C23.5466 23.1698 23.309 23.2553 23.0714 23.2553Z" fill="#EE2654"/>
</svg>
