<svg width="40" height="36" viewBox="0 0 40 36" fill="none" xmlns="http://www.w3.org/2000/svg">
<path d="M36.7444 10.7289C35.7711 10.7045 34.8002 11.0844 34.106 11.7784L26.4624 19.4203C26.3094 18.8646 26.0148 18.3552 25.5965 17.9358C24.954 17.2914 24.0983 16.9367 23.1873 16.9367H15.6254C13.8404 16.9367 12.1627 17.6315 10.9009 18.893L6.88067 22.9126L6.22561 22.2577C5.90009 21.9323 5.37275 21.9323 5.04723 22.2577L0.24417 27.0592C0.0720511 27.2313 -0.0162463 27.4697 0.00247106 27.7122C0.0211885 27.9546 0.144886 28.1771 0.341419 28.3207L10.6185 35.8393C10.7658 35.9471 10.9383 36 11.11 36C11.3249 36 11.5381 35.9174 11.6996 35.7559L15.1241 32.3322C15.4496 32.0068 15.4496 31.4796 15.1241 31.1541L14.2213 30.2515L15.5282 28.9452L24.6456 28.9488C24.6464 28.9488 24.6468 28.9488 24.6476 28.9488C25.8679 28.9488 27.0158 28.4737 27.8796 27.6105L39.0039 16.4884C39.6399 15.8526 39.9939 15.0024 40 14.0891C40 13.2413 39.6891 12.4326 39.1292 11.8163C38.5242 11.1406 37.677 10.7545 36.7444 10.7289ZM11.0262 34.073L2.11022 27.5498L5.63642 24.0249L13.3565 31.7432L11.0262 34.073ZM37.8255 15.3103L26.7013 26.4319C26.1524 26.9807 25.4232 27.2826 24.6476 27.2826C24.6472 27.2826 24.6468 27.2826 24.6464 27.2826L15.1835 27.2789C14.9626 27.2789 14.7502 27.3668 14.5939 27.523L13.0428 29.0733L8.05911 24.0908L12.0793 20.0711C13.0265 19.1245 14.2859 18.603 15.6254 18.603H23.1873C23.6524 18.603 24.0886 18.784 24.4161 19.1123C24.7404 19.4377 24.9186 19.8698 24.917 20.3392C24.9193 20.605 24.8438 20.8589 24.7261 21.0945C24.5631 21.1743 24.3878 21.2373 24.1862 21.2655C24.1126 21.2769 24.0393 21.2826 23.8839 21.2867L17.6282 21.9079C17.17 21.9534 16.8355 22.3615 16.8811 22.8191C16.9238 23.2491 17.2864 23.5701 17.7096 23.5701C17.7368 23.5701 17.7649 23.5689 17.7926 23.566L23.9661 22.9489C24.124 22.9489 24.2818 22.9367 24.4283 22.9139C24.8806 22.8509 25.2937 22.6948 25.671 22.4736C25.6863 22.4673 25.6999 22.4588 25.7149 22.4516C25.7451 22.4333 25.7797 22.4234 25.8093 22.4042C25.8326 22.389 25.8451 22.3652 25.8663 22.3481C25.891 22.3286 25.9204 22.3183 25.9432 22.2956L35.2844 12.9565C35.6559 12.5847 36.1792 12.3878 36.6984 12.3947C37.1688 12.4078 37.5911 12.5969 37.8914 12.9321C38.1763 13.2458 38.3333 13.6566 38.3333 14.0834C38.3301 14.5504 38.1498 14.9861 37.8255 15.3103Z" fill="white"/>
<path d="M20.9505 5.78619C22.273 4.46448 22.273 2.3133 20.9505 0.991587C19.6281 -0.330529 17.4772 -0.330529 16.1548 0.991587C14.8324 2.3133 14.8324 4.46448 16.1548 5.78619C16.816 6.44725 17.6843 6.77757 18.5527 6.77757C19.421 6.77757 20.2893 6.44725 20.9505 5.78619ZM17.3332 2.16969C17.6693 1.83367 18.1112 1.66566 18.5527 1.66566C18.9942 1.66566 19.4361 1.83367 19.7722 2.16969C20.4444 2.84214 20.4444 3.93563 19.7722 4.60808C19.1 5.28012 18.0054 5.28012 17.3332 4.60808C16.661 3.93563 16.661 2.84214 17.3332 2.16969Z" fill="white"/>
<path d="M26.3456 14.5683C27.214 14.5683 28.0823 14.238 28.7435 13.5769C30.0659 12.2552 30.0659 10.104 28.7435 8.78231C27.4211 7.46019 25.2702 7.46019 23.9478 8.78231C22.6253 10.104 22.6253 12.2552 23.9478 13.5769C24.609 14.238 25.4773 14.5683 26.3456 14.5683ZM25.1262 9.96041C25.4623 9.62439 25.9041 9.45638 26.3456 9.45638C26.7871 9.45638 27.229 9.62439 27.5651 9.96041C28.2373 10.6329 28.2373 11.7264 27.5651 12.3988C26.8929 13.0708 25.7984 13.0708 25.1262 12.3988C24.454 11.7264 24.454 10.6329 25.1262 9.96041Z" fill="white"/>
<path d="M18.2796 12.2857C18.4929 12.2857 18.7061 12.2044 18.8688 12.0416L27.2074 3.70498C27.533 3.37953 27.533 2.85231 27.2074 2.52687C26.8819 2.20142 26.3546 2.20142 26.0291 2.52687L17.6904 10.8635C17.3649 11.189 17.3649 11.7162 17.6904 12.0416C17.8532 12.2044 18.0664 12.2857 18.2796 12.2857Z" fill="white"/>
</svg>
