<svg width="23" height="24" viewBox="0 0 23 24" fill="none" xmlns="http://www.w3.org/2000/svg">
<path d="M22.7192 5.628L17.6065 0.293C17.4268 0.105451 17.1831 5.66374e-05 16.929 0H0.958333C0.704167 0 0.460412 0.105357 0.28069 0.292893C0.100967 0.48043 0 0.734784 0 1V23C0 23.2652 0.100967 23.5196 0.28069 23.7071C0.460412 23.8946 0.704167 24 0.958333 24H22.0417C22.2958 24 22.5396 23.8946 22.7193 23.7071C22.899 23.5196 23 23.2652 23 23V6.335C22.9999 6.06981 22.8989 5.81549 22.7192 5.628ZM7.46829 2H15.5317V5.143H7.46829V2ZM21.0833 22H1.91667V2H5.55163V6.143C5.55163 6.40822 5.65259 6.66257 5.83231 6.85011C6.01204 7.03764 6.25579 7.143 6.50996 7.143H16.49C16.7442 7.143 16.988 7.03764 17.1677 6.85011C17.3474 6.66257 17.4484 6.40822 17.4484 6.143V2.956L21.0833 6.749V22ZM11.5 9.892C10.7102 9.892 9.93811 10.1364 9.2814 10.5943C8.62469 11.0521 8.11285 11.7029 7.8106 12.4644C7.50835 13.2258 7.42927 14.0636 7.58336 14.8719C7.73744 15.6803 8.11777 16.4227 8.67626 17.0055C9.23474 17.5883 9.94629 17.9851 10.7209 18.1459C11.4956 18.3067 12.2985 18.2242 13.0282 17.9088C13.7579 17.5934 14.3816 17.0593 14.8204 16.3741C15.2592 15.6888 15.4934 14.8832 15.4934 14.059C15.4924 12.9542 15.0713 11.8949 14.3226 11.1137C13.5739 10.3324 12.5588 9.89306 11.5 9.892ZM11.5 16.226C11.0893 16.226 10.6878 16.0989 10.3462 15.8608C10.0047 15.6227 9.73855 15.2842 9.58137 14.8883C9.42419 14.4923 9.38307 14.0566 9.46319 13.6362C9.54333 13.2159 9.74111 12.8298 10.0315 12.5267C10.322 12.2236 10.692 12.0173 11.0949 11.9336C11.4977 11.85 11.9153 11.8929 12.2947 12.057C12.6742 12.221 12.9985 12.4987 13.2267 12.8551C13.4549 13.2114 13.5767 13.6304 13.5767 14.059C13.5759 14.6335 13.3569 15.1842 12.9676 15.5904C12.5783 15.9966 12.0505 16.2252 11.5 16.226Z" fill="#918BC5"/>
</svg>
