<svg width="20" height="20" viewBox="0 0 20 20" fill="none" xmlns="http://www.w3.org/2000/svg">
<path d="M19 10C19 14.962 14.962 19 10 19C5.038 19 1 14.962 1 10C1 5.038 5.038 1 10 1C14.962 1 19 5.038 19 10Z" stroke="#918BC5" stroke-width="2"/>
<path d="M10.0714 7.92857C9.46429 7.92857 9 8.39286 9 9V14.4643C9 15.0714 9.46429 15.5357 10.0714 15.5357C10.6786 15.5357 11.1429 15.0714 11.1429 14.4643V9C11.1429 8.39286 10.6786 7.92857 10.0714 7.92857Z" fill="#918BC5"/>
<path d="M10.0714 4C9.78571 4 9.5 4.10714 9.32143 4.32143C9.10714 4.5 9 4.78571 9 5.07143C9 5.14286 9 5.21429 9.03571 5.28571C9.03571 5.35714 9.07143 5.42857 9.10714 5.5C9.14286 5.57143 9.17857 5.60714 9.21429 5.67857C9.25 5.75 9.28571 5.78571 9.35714 5.85714C9.75 6.25 10.4643 6.25 10.8571 5.85714C10.8929 5.82143 10.9643 5.75 11 5.67857C11.0357 5.60714 11.0714 5.57143 11.1071 5.5C11.1429 5.42857 11.1429 5.35714 11.1786 5.28571C11.1786 5.21429 11.2143 5.14286 11.2143 5.07143C11.2143 4.78571 11.1071 4.5 10.8929 4.32143C10.6429 4.10714 10.3571 4 10.0714 4Z" fill="#918BC5"/>
</svg>
