<svg width="201" height="59" viewBox="0 0 201 59" fill="none" xmlns="http://www.w3.org/2000/svg">
<path d="M23.6875 8.72041L38.3218 23.3548L29.3844 32.2927L31.7445 34.6529L43.0425 23.3548L23.6876 4L21.3008 6.38693L23.6609 8.74704L23.6875 8.72041Z" fill="#EE2654"/>
<path d="M19.3551 54.2797L4.72053 39.6452L13.6584 30.7074L11.2982 28.3472L0 39.6454L19.3549 59.0002L21.742 56.6132L19.3818 54.253L19.3551 54.2797Z" fill="#EE2654"/>
<path d="M19.8038 32.1323L19.7983 32.1378L26.9587 39.2983C27.937 40.2767 28.4866 41.6036 28.4866 42.9873C28.4866 44.3709 27.937 45.6979 26.9587 46.6763L21.7421 51.8929L24.1023 54.253L29.3188 49.0364C30.904 47.4503 31.8027 45.3049 31.8213 43.0625C31.84 40.8201 30.977 38.6601 29.4184 37.0479C29.3837 37.012 29.3543 36.9732 29.319 36.9379L28.2094 35.8283L23.2448 30.8636L16.0839 23.7028C15.1055 22.7243 14.5558 21.3972 14.5558 20.0135C14.5558 18.6298 15.1055 17.3027 16.0839 16.3243L21.3005 11.1077L18.9403 8.74756L13.7238 13.9641C12.1392 15.5497 11.2406 17.694 11.2213 19.9355C11.202 22.1769 12.0635 24.3364 13.6205 25.949L13.6585 25.9871L19.8038 32.1323Z" fill="white"/>
<path d="M50.8035 46.6802C50.4075 46.6802 50.0745 46.5452 49.8045 46.2752C49.5345 46.0052 49.3995 45.6722 49.3995 45.2762V26.9972C49.3995 26.5832 49.5345 26.2502 49.8045 25.9982C50.0745 25.7282 50.4075 25.5932 50.8035 25.5932H63.0075C63.4215 25.5932 63.7545 25.7192 64.0065 25.9712C64.2585 26.2052 64.3845 26.5202 64.3845 26.9162C64.3845 27.2942 64.2585 27.6002 64.0065 27.8342C63.7545 28.0682 63.4215 28.1852 63.0075 28.1852H52.2075V34.7462H59.9565C60.3705 34.7462 60.7035 34.8722 60.9555 35.1242C61.2075 35.3582 61.3335 35.6642 61.3335 36.0422C61.3335 36.4202 61.2075 36.7352 60.9555 36.9872C60.7035 37.2212 60.3705 37.3382 59.9565 37.3382H52.2075V44.0882H63.0075C63.4215 44.0882 63.7545 44.2052 64.0065 44.4392C64.2585 44.6732 64.3845 44.9792 64.3845 45.3572C64.3845 45.7532 64.2585 46.0772 64.0065 46.3292C63.7545 46.5632 63.4215 46.6802 63.0075 46.6802H50.8035ZM74.7307 46.7882C73.2907 46.7882 72.0037 46.4642 70.8697 45.8162C69.7537 45.1502 68.8717 44.2592 68.2237 43.1432C67.5937 42.0092 67.2787 40.7312 67.2787 39.3092C67.2787 37.8512 67.5937 36.5552 68.2237 35.4212C68.8537 34.2872 69.7177 33.4052 70.8157 32.7752C71.9137 32.1272 73.1737 31.8032 74.5957 31.8032C75.6577 31.8032 76.6297 32.0102 77.5117 32.4242C78.3937 32.8202 79.1857 33.4232 79.8877 34.2332C80.1397 34.5212 80.2297 34.8182 80.1577 35.1242C80.0857 35.4302 79.8877 35.7002 79.5637 35.9342C79.3117 36.1142 79.0327 36.1772 78.7267 36.1232C78.4207 36.0512 78.1417 35.8892 77.8897 35.6372C77.0077 34.7012 75.9097 34.2332 74.5957 34.2332C73.6777 34.2332 72.8677 34.4492 72.1657 34.8812C71.4637 35.2952 70.9147 35.8802 70.5187 36.6362C70.1227 37.3922 69.9247 38.2832 69.9247 39.3092C69.9247 40.2812 70.1227 41.1452 70.5187 41.9012C70.9327 42.6572 71.4997 43.2602 72.2197 43.7102C72.9397 44.1422 73.7767 44.3582 74.7307 44.3582C75.3607 44.3582 75.9097 44.2862 76.3777 44.1422C76.8637 43.9802 77.3047 43.7372 77.7007 43.4132C77.9887 43.1792 78.2857 43.0532 78.5917 43.0352C78.8977 42.9992 79.1677 43.0802 79.4017 43.2782C79.7077 43.5302 79.8787 43.8182 79.9147 44.1422C79.9507 44.4482 79.8427 44.7272 79.5907 44.9792C78.2947 46.1852 76.6747 46.7882 74.7307 46.7882ZM90.9466 46.7882C89.4886 46.7882 88.2016 46.4732 87.0856 45.8432C85.9696 45.1952 85.0876 44.3132 84.4396 43.1972C83.8096 42.0632 83.4946 40.7672 83.4946 39.3092C83.4946 37.8332 83.8096 36.5372 84.4396 35.4212C85.0876 34.2872 85.9696 33.4052 87.0856 32.7752C88.2016 32.1272 89.4886 31.8032 90.9466 31.8032C92.3866 31.8032 93.6646 32.1272 94.7806 32.7752C95.8966 33.4052 96.7696 34.2872 97.3996 35.4212C98.0476 36.5372 98.3716 37.8332 98.3716 39.3092C98.3716 40.7672 98.0566 42.0632 97.4266 43.1972C96.7966 44.3132 95.9236 45.1952 94.8076 45.8432C93.6916 46.4732 92.4046 46.7882 90.9466 46.7882ZM90.9466 44.3582C91.8826 44.3582 92.7106 44.1422 93.4306 43.7102C94.1506 43.2782 94.7086 42.6842 95.1046 41.9282C95.5186 41.1722 95.7256 40.2992 95.7256 39.3092C95.7256 38.3192 95.5186 37.4462 95.1046 36.6902C94.7086 35.9162 94.1506 35.3132 93.4306 34.8812C92.7106 34.4492 91.8826 34.2332 90.9466 34.2332C90.0106 34.2332 89.1826 34.4492 88.4626 34.8812C87.7426 35.3132 87.1756 35.9162 86.7616 36.6902C86.3476 37.4462 86.1406 38.3192 86.1406 39.3092C86.1406 40.2992 86.3476 41.1722 86.7616 41.9282C87.1756 42.6842 87.7426 43.2782 88.4626 43.7102C89.1826 44.1422 90.0106 44.3582 90.9466 44.3582Z" fill="white"/>
<path d="M104.144 46.6802C103.748 46.6802 103.415 46.5452 103.145 46.2752C102.875 46.0052 102.74 45.6722 102.74 45.2762V26.9972C102.74 26.5832 102.875 26.2502 103.145 25.9982C103.415 25.7282 103.748 25.5932 104.144 25.5932H109.004C110.354 25.5932 111.551 25.8812 112.595 26.4572C113.639 27.0152 114.449 27.7892 115.025 28.7792C115.619 29.7692 115.916 30.9212 115.916 32.2352C115.916 33.4592 115.619 34.5482 115.025 35.5022C114.449 36.4562 113.639 37.2032 112.595 37.7432C111.551 38.2832 110.354 38.5532 109.004 38.5532H105.548V45.2762C105.548 45.6722 105.413 46.0052 105.143 46.2752C104.891 46.5452 104.558 46.6802 104.144 46.6802ZM115.349 46.6802C115.097 46.6802 114.863 46.6262 114.647 46.5182C114.449 46.4102 114.278 46.2392 114.134 46.0052L109.274 38.1752L112.001 37.3922L116.429 44.5202C116.753 45.0422 116.798 45.5372 116.564 46.0052C116.33 46.4552 115.925 46.6802 115.349 46.6802ZM105.548 35.9612H109.004C109.832 35.9612 110.561 35.8082 111.191 35.5022C111.821 35.1782 112.316 34.7372 112.676 34.1792C113.036 33.6032 113.216 32.9552 113.216 32.2352C113.216 31.4432 113.036 30.7412 112.676 30.1292C112.316 29.5172 111.821 29.0402 111.191 28.6982C110.561 28.3562 109.832 28.1852 109.004 28.1852H105.548V35.9612ZM126.469 46.7882C124.975 46.7882 123.643 46.4732 122.473 45.8432C121.321 45.1952 120.412 44.3132 119.746 43.1972C119.098 42.0632 118.774 40.7672 118.774 39.3092C118.774 37.8332 119.08 36.5372 119.692 35.4212C120.322 34.2872 121.186 33.4052 122.284 32.7752C123.382 32.1272 124.642 31.8032 126.064 31.8032C127.468 31.8032 128.674 32.1182 129.682 32.7482C130.69 33.3602 131.455 34.2152 131.977 35.3132C132.517 36.3932 132.787 37.6442 132.787 39.0662C132.787 39.4082 132.67 39.6962 132.436 39.9302C132.202 40.1462 131.905 40.2542 131.545 40.2542H120.664V38.0942H131.464L130.357 38.8502C130.339 37.9502 130.159 37.1492 129.817 36.4472C129.475 35.7272 128.989 35.1602 128.359 34.7462C127.729 34.3322 126.964 34.1252 126.064 34.1252C125.038 34.1252 124.156 34.3502 123.418 34.8002C122.698 35.2502 122.149 35.8712 121.771 36.6632C121.393 37.4372 121.204 38.3192 121.204 39.3092C121.204 40.2992 121.429 41.1812 121.879 41.9552C122.329 42.7292 122.95 43.3412 123.742 43.7912C124.534 44.2412 125.443 44.4662 126.469 44.4662C127.027 44.4662 127.594 44.3672 128.17 44.1692C128.764 43.9532 129.241 43.7102 129.601 43.4402C129.871 43.2422 130.159 43.1432 130.465 43.1432C130.789 43.1252 131.068 43.2152 131.302 43.4132C131.608 43.6832 131.77 43.9802 131.788 44.3042C131.806 44.6282 131.662 44.9072 131.356 45.1412C130.744 45.6272 129.979 46.0232 129.061 46.3292C128.161 46.6352 127.297 46.7882 126.469 46.7882ZM141.672 46.6802C140.772 46.6802 139.962 46.4552 139.242 46.0052C138.522 45.5372 137.955 44.9072 137.541 44.1152C137.127 43.3232 136.92 42.4322 136.92 41.4422V28.5632C136.92 28.1672 137.046 27.8432 137.298 27.5912C137.55 27.3392 137.874 27.2132 138.27 27.2132C138.666 27.2132 138.99 27.3392 139.242 27.5912C139.494 27.8432 139.62 28.1672 139.62 28.5632V41.4422C139.62 42.1622 139.818 42.7652 140.214 43.2512C140.61 43.7372 141.096 43.9802 141.672 43.9802H142.59C142.914 43.9802 143.184 44.1062 143.4 44.3582C143.634 44.6102 143.751 44.9342 143.751 45.3302C143.751 45.7262 143.598 46.0502 143.292 46.3022C143.004 46.5542 142.626 46.6802 142.158 46.6802H141.672ZM135.678 34.7732C135.3 34.7732 134.994 34.6652 134.76 34.4492C134.526 34.2332 134.409 33.9632 134.409 33.6392C134.409 33.2792 134.526 32.9912 134.76 32.7752C134.994 32.5592 135.3 32.4512 135.678 32.4512H141.915C142.293 32.4512 142.599 32.5592 142.833 32.7752C143.067 32.9912 143.184 33.2792 143.184 33.6392C143.184 33.9632 143.067 34.2332 142.833 34.4492C142.599 34.6652 142.293 34.7732 141.915 34.7732H135.678ZM153.346 46.8152C152.104 46.8152 150.988 46.5542 149.998 46.0322C149.026 45.4922 148.252 44.7092 147.676 43.6832C147.118 42.6572 146.839 41.3972 146.839 39.9032V33.2612C146.839 32.8652 146.965 32.5412 147.217 32.2892C147.487 32.0192 147.82 31.8842 148.216 31.8842C148.612 31.8842 148.936 32.0192 149.188 32.2892C149.458 32.5412 149.593 32.8652 149.593 33.2612V39.9032C149.593 40.9112 149.782 41.7482 150.16 42.4142C150.538 43.0622 151.051 43.5482 151.699 43.8722C152.347 44.1782 153.076 44.3312 153.886 44.3312C154.66 44.3312 155.344 44.1782 155.938 43.8722C156.55 43.5662 157.036 43.1522 157.396 42.6302C157.756 42.1082 157.936 41.5232 157.936 40.8752H159.637C159.637 41.9912 159.358 42.9992 158.8 43.8992C158.26 44.7992 157.513 45.5102 156.559 46.0322C155.623 46.5542 154.552 46.8152 153.346 46.8152ZM159.313 46.6802C158.917 46.6802 158.584 46.5542 158.314 46.3022C158.062 46.0322 157.936 45.6992 157.936 45.3032V33.2612C157.936 32.8472 158.062 32.5142 158.314 32.2622C158.584 32.0102 158.917 31.8842 159.313 31.8842C159.727 31.8842 160.06 32.0102 160.312 32.2622C160.564 32.5142 160.69 32.8472 160.69 33.2612V45.3032C160.69 45.6992 160.564 46.0322 160.312 46.3022C160.06 46.5542 159.727 46.6802 159.313 46.6802ZM166.864 37.4462C166.864 36.3662 167.125 35.4032 167.647 34.5572C168.187 33.6932 168.907 33.0092 169.807 32.5052C170.707 32.0012 171.697 31.7492 172.777 31.7492C173.857 31.7492 174.658 31.9292 175.18 32.2892C175.72 32.6312 175.927 33.0452 175.801 33.5312C175.747 33.7832 175.639 33.9812 175.477 34.1252C175.333 34.2512 175.162 34.3322 174.964 34.3682C174.766 34.4042 174.55 34.3952 174.316 34.3412C173.164 34.1072 172.129 34.0892 171.211 34.2872C170.293 34.4852 169.564 34.8542 169.024 35.3942C168.502 35.9342 168.241 36.6182 168.241 37.4462H166.864ZM166.891 46.6802C166.459 46.6802 166.126 46.5722 165.892 46.3562C165.658 46.1222 165.541 45.7802 165.541 45.3302V33.2612C165.541 32.8292 165.658 32.4962 165.892 32.2622C166.126 32.0282 166.459 31.9112 166.891 31.9112C167.341 31.9112 167.674 32.0282 167.89 32.2622C168.124 32.4782 168.241 32.8112 168.241 33.2612V45.3302C168.241 45.7622 168.124 46.0952 167.89 46.3292C167.674 46.5632 167.341 46.6802 166.891 46.6802ZM191.145 46.7072C190.749 46.7072 190.416 46.5812 190.146 46.3292C189.894 46.0592 189.768 45.7262 189.768 45.3302V38.6882C189.768 37.6622 189.579 36.8252 189.201 36.1772C188.823 35.5292 188.31 35.0522 187.662 34.7462C187.032 34.4222 186.303 34.2602 185.475 34.2602C184.719 34.2602 184.035 34.4132 183.423 34.7192C182.811 35.0252 182.325 35.4392 181.965 35.9612C181.605 36.4652 181.425 37.0502 181.425 37.7162H179.724C179.724 36.5822 179.994 35.5742 180.534 34.6922C181.092 33.7922 181.848 33.0812 182.802 32.5592C183.756 32.0372 184.827 31.7762 186.015 31.7762C187.257 31.7762 188.364 32.0462 189.336 32.5862C190.326 33.1082 191.1 33.8822 191.658 34.9082C192.234 35.9342 192.522 37.1942 192.522 38.6882V45.3302C192.522 45.7262 192.387 46.0592 192.117 46.3292C191.865 46.5812 191.541 46.7072 191.145 46.7072ZM180.048 46.7072C179.652 46.7072 179.319 46.5812 179.049 46.3292C178.797 46.0592 178.671 45.7262 178.671 45.3302V33.2882C178.671 32.8742 178.797 32.5412 179.049 32.2892C179.319 32.0372 179.652 31.9112 180.048 31.9112C180.462 31.9112 180.795 32.0372 181.047 32.2892C181.299 32.5412 181.425 32.8742 181.425 33.2882V45.3302C181.425 45.7262 181.299 46.0592 181.047 46.3292C180.795 46.5812 180.462 46.7072 180.048 46.7072Z" fill="#EE2654"/>
<path d="M51.636 9.86C51.968 9.86 52.26 9.816 52.512 9.728C52.768 9.64 52.982 9.518 53.154 9.362C53.33 9.202 53.462 9.012 53.55 8.792C53.638 8.572 53.682 8.33 53.682 8.066C53.682 7.518 53.512 7.09 53.172 6.782C52.836 6.474 52.324 6.32 51.636 6.32H50.256V9.86H51.636ZM51.636 5.402C52.18 5.402 52.652 5.466 53.052 5.594C53.456 5.718 53.79 5.896 54.054 6.128C54.318 6.36 54.514 6.64 54.642 6.968C54.774 7.296 54.84 7.662 54.84 8.066C54.84 8.466 54.77 8.832 54.63 9.164C54.49 9.496 54.284 9.782 54.012 10.022C53.744 10.262 53.41 10.45 53.01 10.586C52.614 10.718 52.156 10.784 51.636 10.784H50.256V14H49.098V5.402H51.636ZM58.2986 7.826C58.7426 7.826 59.1426 7.9 59.4986 8.048C59.8546 8.196 60.1586 8.406 60.4106 8.678C60.6626 8.95 60.8546 9.28 60.9866 9.668C61.1226 10.052 61.1906 10.482 61.1906 10.958C61.1906 11.438 61.1226 11.87 60.9866 12.254C60.8546 12.638 60.6626 12.966 60.4106 13.238C60.1586 13.51 59.8546 13.72 59.4986 13.868C59.1426 14.012 58.7426 14.084 58.2986 14.084C57.8506 14.084 57.4466 14.012 57.0866 13.868C56.7306 13.72 56.4266 13.51 56.1746 13.238C55.9226 12.966 55.7286 12.638 55.5926 12.254C55.4606 11.87 55.3946 11.438 55.3946 10.958C55.3946 10.482 55.4606 10.052 55.5926 9.668C55.7286 9.28 55.9226 8.95 56.1746 8.678C56.4266 8.406 56.7306 8.196 57.0866 8.048C57.4466 7.9 57.8506 7.826 58.2986 7.826ZM58.2986 13.25C58.8986 13.25 59.3466 13.05 59.6426 12.65C59.9386 12.246 60.0866 11.684 60.0866 10.964C60.0866 10.24 59.9386 9.676 59.6426 9.272C59.3466 8.868 58.8986 8.666 58.2986 8.666C57.9946 8.666 57.7286 8.718 57.5006 8.822C57.2766 8.926 57.0886 9.076 56.9366 9.272C56.7886 9.468 56.6766 9.71 56.6006 9.998C56.5286 10.282 56.4926 10.604 56.4926 10.964C56.4926 11.684 56.6406 12.246 56.9366 12.65C57.2366 13.05 57.6906 13.25 58.2986 13.25ZM70.8335 7.922L68.8655 14H68.0195C67.9155 14 67.8435 13.932 67.8035 13.796L66.4595 9.674C66.4275 9.582 66.4015 9.49 66.3815 9.398C66.3615 9.302 66.3415 9.208 66.3215 9.116C66.3015 9.208 66.2815 9.302 66.2615 9.398C66.2415 9.49 66.2155 9.584 66.1835 9.68L64.8155 13.796C64.7795 13.932 64.6995 14 64.5755 14H63.7715L61.8035 7.922H62.6435C62.7275 7.922 62.7975 7.944 62.8535 7.988C62.9135 8.032 62.9535 8.084 62.9735 8.144L64.1375 12.056C64.2055 12.344 64.2595 12.616 64.2995 12.872C64.3355 12.74 64.3715 12.606 64.4075 12.47C64.4475 12.334 64.4895 12.196 64.5335 12.056L65.8175 8.12C65.8375 8.06 65.8715 8.01 65.9195 7.97C65.9715 7.93 66.0335 7.91 66.1055 7.91H66.5735C66.6535 7.91 66.7195 7.93 66.7715 7.97C66.8235 8.01 66.8595 8.06 66.8795 8.12L68.1335 12.056C68.1775 12.196 68.2175 12.334 68.2535 12.47C68.2895 12.606 68.3235 12.74 68.3555 12.872C68.3755 12.74 68.3995 12.608 68.4275 12.476C68.4595 12.34 68.4935 12.2 68.5295 12.056L69.7175 8.144C69.7375 8.08 69.7755 8.028 69.8315 7.988C69.8875 7.944 69.9535 7.922 70.0295 7.922H70.8335ZM75.8593 10.298C75.8593 10.05 75.8233 9.824 75.7513 9.62C75.6833 9.412 75.5813 9.234 75.4453 9.086C75.3133 8.934 75.1513 8.818 74.9593 8.738C74.7673 8.654 74.5493 8.612 74.3053 8.612C73.7933 8.612 73.3873 8.762 73.0873 9.062C72.7913 9.358 72.6073 9.77 72.5353 10.298H75.8593ZM76.7233 13.148C76.5913 13.308 76.4333 13.448 76.2493 13.568C76.0653 13.684 75.8673 13.78 75.6553 13.856C75.4473 13.932 75.2313 13.988 75.0073 14.024C74.7833 14.064 74.5613 14.084 74.3413 14.084C73.9213 14.084 73.5333 14.014 73.1773 13.874C72.8253 13.73 72.5193 13.522 72.2593 13.25C72.0033 12.974 71.8033 12.634 71.6593 12.23C71.5153 11.826 71.4433 11.362 71.4433 10.838C71.4433 10.414 71.5073 10.018 71.6353 9.65C71.7673 9.282 71.9553 8.964 72.1993 8.696C72.4433 8.424 72.7413 8.212 73.0933 8.06C73.4453 7.904 73.8413 7.826 74.2813 7.826C74.6453 7.826 74.9813 7.888 75.2893 8.012C75.6013 8.132 75.8693 8.308 76.0933 8.54C76.3213 8.768 76.4993 9.052 76.6273 9.392C76.7553 9.728 76.8193 10.112 76.8193 10.544C76.8193 10.712 76.8013 10.824 76.7653 10.88C76.7293 10.936 76.6613 10.964 76.5613 10.964H72.4993C72.5113 11.348 72.5633 11.682 72.6553 11.966C72.7513 12.25 72.8833 12.488 73.0513 12.68C73.2193 12.868 73.4193 13.01 73.6513 13.106C73.8833 13.198 74.1433 13.244 74.4313 13.244C74.6993 13.244 74.9293 13.214 75.1213 13.154C75.3173 13.09 75.4853 13.022 75.6253 12.95C75.7653 12.878 75.8813 12.812 75.9733 12.752C76.0693 12.688 76.1513 12.656 76.2193 12.656C76.3073 12.656 76.3753 12.69 76.4233 12.758L76.7233 13.148ZM79.1452 9.14C79.3372 8.724 79.5732 8.4 79.8532 8.168C80.1332 7.932 80.4752 7.814 80.8792 7.814C81.0072 7.814 81.1292 7.828 81.2452 7.856C81.3652 7.884 81.4712 7.928 81.5632 7.988L81.4852 8.786C81.4612 8.886 81.4012 8.936 81.3052 8.936C81.2492 8.936 81.1672 8.924 81.0592 8.9C80.9512 8.876 80.8292 8.864 80.6932 8.864C80.5012 8.864 80.3292 8.892 80.1772 8.948C80.0292 9.004 79.8952 9.088 79.7752 9.2C79.6592 9.308 79.5532 9.444 79.4572 9.608C79.3652 9.768 79.2812 9.952 79.2052 10.16V14H78.1312V7.922H78.7432C78.8592 7.922 78.9392 7.944 78.9832 7.988C79.0272 8.032 79.0572 8.108 79.0732 8.216L79.1452 9.14ZM86.3242 10.298C86.3242 10.05 86.2882 9.824 86.2162 9.62C86.1482 9.412 86.0462 9.234 85.9102 9.086C85.7782 8.934 85.6162 8.818 85.4242 8.738C85.2322 8.654 85.0142 8.612 84.7702 8.612C84.2582 8.612 83.8522 8.762 83.5522 9.062C83.2562 9.358 83.0722 9.77 83.0002 10.298H86.3242ZM87.1882 13.148C87.0562 13.308 86.8982 13.448 86.7142 13.568C86.5302 13.684 86.3322 13.78 86.1202 13.856C85.9122 13.932 85.6962 13.988 85.4722 14.024C85.2482 14.064 85.0262 14.084 84.8062 14.084C84.3862 14.084 83.9982 14.014 83.6422 13.874C83.2902 13.73 82.9842 13.522 82.7242 13.25C82.4682 12.974 82.2682 12.634 82.1242 12.23C81.9802 11.826 81.9082 11.362 81.9082 10.838C81.9082 10.414 81.9722 10.018 82.1002 9.65C82.2322 9.282 82.4202 8.964 82.6642 8.696C82.9082 8.424 83.2062 8.212 83.5582 8.06C83.9102 7.904 84.3062 7.826 84.7462 7.826C85.1102 7.826 85.4462 7.888 85.7542 8.012C86.0662 8.132 86.3342 8.308 86.5582 8.54C86.7862 8.768 86.9642 9.052 87.0922 9.392C87.2202 9.728 87.2842 10.112 87.2842 10.544C87.2842 10.712 87.2662 10.824 87.2302 10.88C87.1942 10.936 87.1262 10.964 87.0262 10.964H82.9642C82.9762 11.348 83.0282 11.682 83.1202 11.966C83.2162 12.25 83.3482 12.488 83.5162 12.68C83.6842 12.868 83.8842 13.01 84.1162 13.106C84.3482 13.198 84.6082 13.244 84.8962 13.244C85.1642 13.244 85.3942 13.214 85.5862 13.154C85.7822 13.09 85.9502 13.022 86.0902 12.95C86.2302 12.878 86.3462 12.812 86.4382 12.752C86.5342 12.688 86.6162 12.656 86.6842 12.656C86.7722 12.656 86.8402 12.69 86.8882 12.758L87.1882 13.148ZM92.556 9.368C92.356 9.1 92.14 8.914 91.908 8.81C91.676 8.702 91.416 8.648 91.128 8.648C90.564 8.648 90.13 8.85 89.826 9.254C89.522 9.658 89.37 10.234 89.37 10.982C89.37 11.378 89.404 11.718 89.472 12.002C89.54 12.282 89.64 12.514 89.772 12.698C89.904 12.878 90.066 13.01 90.258 13.094C90.45 13.178 90.668 13.22 90.912 13.22C91.264 13.22 91.57 13.14 91.83 12.98C92.094 12.82 92.336 12.594 92.556 12.302V9.368ZM93.624 5.162V14H92.988C92.836 14 92.74 13.926 92.7 13.778L92.604 13.04C92.344 13.352 92.048 13.604 91.716 13.796C91.384 13.988 91 14.084 90.564 14.084C90.216 14.084 89.9 14.018 89.616 13.886C89.332 13.75 89.09 13.552 88.89 13.292C88.69 13.032 88.536 12.708 88.428 12.32C88.32 11.932 88.266 11.486 88.266 10.982C88.266 10.534 88.326 10.118 88.446 9.734C88.566 9.346 88.738 9.01 88.962 8.726C89.186 8.442 89.46 8.22 89.784 8.06C90.112 7.896 90.48 7.814 90.888 7.814C91.26 7.814 91.578 7.878 91.842 8.006C92.11 8.13 92.348 8.304 92.556 8.528V5.162H93.624ZM99.4552 12.536C99.6512 12.8 99.8652 12.986 100.097 13.094C100.333 13.202 100.591 13.256 100.871 13.256C101.443 13.256 101.881 13.054 102.185 12.65C102.489 12.246 102.641 11.644 102.641 10.844C102.641 10.1 102.505 9.554 102.233 9.206C101.965 8.854 101.581 8.678 101.081 8.678C100.733 8.678 100.429 8.758 100.169 8.918C99.9132 9.078 99.6752 9.304 99.4552 9.596V12.536ZM99.4552 8.798C99.7112 8.502 99.9992 8.266 100.319 8.09C100.643 7.914 101.015 7.826 101.435 7.826C101.791 7.826 102.111 7.894 102.395 8.03C102.683 8.166 102.927 8.364 103.127 8.624C103.327 8.88 103.479 9.192 103.583 9.56C103.691 9.928 103.745 10.342 103.745 10.802C103.745 11.294 103.685 11.742 103.565 12.146C103.445 12.55 103.271 12.896 103.043 13.184C102.819 13.468 102.545 13.69 102.221 13.85C101.897 14.006 101.533 14.084 101.129 14.084C100.729 14.084 100.391 14.01 100.115 13.862C99.8432 13.71 99.6052 13.496 99.4012 13.22L99.3472 13.772C99.3152 13.924 99.2232 14 99.0712 14H98.3812V5.162H99.4552V8.798ZM110.188 7.922L106.798 15.794C106.762 15.874 106.716 15.938 106.66 15.986C106.608 16.034 106.526 16.058 106.414 16.058H105.622L106.732 13.646L104.224 7.922H105.148C105.24 7.922 105.312 7.946 105.364 7.994C105.42 8.038 105.458 8.088 105.478 8.144L107.104 11.972C107.168 12.14 107.222 12.316 107.266 12.5C107.322 12.312 107.382 12.134 107.446 11.966L109.024 8.144C109.048 8.08 109.088 8.028 109.144 7.988C109.204 7.944 109.27 7.922 109.342 7.922H110.188Z" fill="white"/>
</svg>
