<svg width="30" height="32" viewBox="0 0 30 32" fill="none" xmlns="http://www.w3.org/2000/svg">
<path d="M21.9999 21.9996H24C24.3999 21.9996 24.8001 21.6996 24.9 21.3996C24.9999 21.0996 24.9 20.5995 24.6 20.2995L15.6 12.2992C15.2001 11.9992 14.7 11.9992 14.3001 12.2992L5.3001 20.2995C5.0001 20.5995 4.9002 20.9994 5.0001 21.3996C5.1 21.7995 5.6001 21.9996 6 21.9996H8.0001V29.9999H4.0002V32H26V29.9999H22L21.9999 21.9996ZM15 14.2993L21.3999 19.9993H8.6004L15 14.2993ZM9.9999 29.9999V21.9996H12V29.9999H9.9999ZM14.0001 29.9999V21.9996H16.0002V29.9999H14.0001ZM18 29.9999V21.9996H20.0001V29.9999H18Z" fill="#3291E9"/>
<path d="M5.1999 25.9994C5.4999 25.9994 5.7 25.8995 5.8998 25.6994C6.2997 25.2995 6.2997 24.6995 5.8998 24.2992C3.6 22.0993 2.3001 19.0993 2.0001 15.9997H5.0001C5.6001 15.9997 6 15.5998 6 14.9998C6 14.3998 5.6001 13.9999 5.0001 13.9999L2.1 13.9996C2.3001 11.7997 3 9.79957 4.1001 8.09946C5.0001 8.39946 6.2001 8.79936 7.7001 9.19956C7.4001 10.6996 7.2 12.2995 7.1001 13.9996C7.1001 14.5996 7.5 14.9995 8.1 14.9995C8.6001 14.9995 9.0999 14.5996 9.0999 13.9996C9.1998 12.3997 9.3999 10.8997 9.6999 9.49957C10.9998 9.69967 12.4998 9.89947 14.1 9.89947C14.1 10.4995 14.4999 10.8994 15.0999 10.8994C15.6999 10.8994 16.0998 10.4995 16.0998 9.89947C17.4999 9.89947 18.9999 9.69937 20.4999 9.39937C20.7999 10.7995 21 12.2995 21.0999 13.8994C21.0999 14.3995 21.6 14.8993 22.0998 14.8993C22.6998 14.8993 23.0997 14.3992 23.0997 13.8994C22.9998 12.1993 22.7997 10.5994 22.4997 9.09936C23.6997 8.79936 24.8997 8.49936 26.0997 7.99926C27.1998 9.69937 27.8997 11.7994 28.0998 13.8994L24.9999 13.8997C24.3999 13.8997 24 14.2996 24 14.8996C24 15.4996 24.3999 15.8995 24.9999 15.8995H27.9999C27.7998 18.9994 26.4 21.9994 24.0999 24.1998C23.7 24.5997 23.7 25.1997 24.0999 25.5999C24.4998 25.9998 25.0998 25.9998 25.5 25.5999C28.4001 22.8999 30 19.0998 30 15.0001C30 6.69979 23.3001 0 15 0C6.6999 0 0 6.69994 0 15.0001C0 19.1002 1.5999 22.8999 4.5 25.7004C4.7001 25.9002 5.0001 26.0001 5.1999 26.0001V25.9994ZM10.1001 7.5995C11.0001 4.79958 12.3999 2.79947 14.0001 2.19946V7.9994C12.6 7.9994 11.3001 7.79959 10.1001 7.5995ZM15.9999 7.9994V2.19946C17.5998 2.79947 18.9999 4.79958 19.8999 7.5995C18.5001 7.7996 17.1999 7.8995 15.9999 7.9994ZM24.6999 6.39949C23.7 6.69949 22.8 6.99949 21.9 7.19959C21.3999 5.49948 20.7 4.09968 19.8 2.89967C21.6999 3.69947 23.4 4.89948 24.6999 6.39949ZM10.2002 2.89937C9.40005 4.09938 8.70015 5.49948 8.10015 7.1993C7.00005 6.89929 6.00015 6.59929 5.30025 6.39919C6.60015 4.89948 8.30025 3.69947 10.2002 2.89937Z" fill="#3291E9"/>
</svg>
