<svg width="58" height="50" viewBox="0 0 58 50" fill="none" xmlns="http://www.w3.org/2000/svg">
<path d="M8.39474 50C3.77046 50 0 46.1401 0 41.4063V16.4062C0 11.6724 3.77046 7.8125 8.39474 7.8125H16.6225L20.0091 0.878906C20.1334 0.617448 20.3264 0.396692 20.5666 0.241423C20.8067 0.0861533 21.0844 0.00252921 21.3684 0H36.6316C36.9156 0.00252921 37.1933 0.0861533 37.4334 0.241423C37.6736 0.396692 37.8666 0.617448 37.9909 0.878906L41.3775 7.8125H49.6053C54.2295 7.8125 58 11.6724 58 16.4062V41.4063C58 46.1401 54.2295 50 49.6053 50H8.39474ZM8.39474 46.875H49.6053C52.5912 46.875 54.9474 44.4629 54.9474 41.4063V16.4062C54.9474 13.3496 52.5912 10.9375 49.6053 10.9375H40.4474C40.1659 10.9372 39.8899 10.8573 39.65 10.7065C39.4101 10.5557 39.2156 10.3399 39.088 10.083L35.6776 3.125H22.3224L18.912 10.083C18.7844 10.3399 18.5899 10.5557 18.35 10.7065C18.1101 10.8573 17.8341 10.9372 17.5526 10.9375H8.39474C5.4088 10.9375 3.05263 13.3496 3.05263 16.4062V41.4063C3.05263 44.4629 5.4088 46.875 8.39474 46.875ZM29 41.4063C22.2745 41.4063 16.7895 35.7913 16.7895 28.9062C16.7895 22.0212 22.2745 16.4062 29 16.4062C35.7256 16.4062 41.2105 22.0212 41.2105 28.9062C41.2105 35.7913 35.7256 41.4063 29 41.4063ZM29 38.2813C34.0758 38.2813 38.1579 34.1024 38.1579 28.9062C38.1579 23.7101 34.0758 19.5312 29 19.5312C23.9243 19.5312 19.8421 23.7102 19.8421 28.9062C19.8421 34.1024 23.9243 38.2813 29 38.2813Z" fill="#DAD8EC"/>
</svg>
