<svg width="12" height="13" viewBox="0 0 12 13" fill="none" xmlns="http://www.w3.org/2000/svg">
<path d="M5.9415 12.112C5.7335 12.112 5.5575 12.048 5.4135 11.92C5.2855 11.776 5.2215 11.6 5.2215 11.392V7.24H1.0935C0.8855 7.24 0.7095 7.176 0.5655 7.048C0.4375 6.904 0.3735 6.728 0.3735 6.52C0.3735 6.312 0.4375 6.144 0.5655 6.016C0.7095 5.872 0.8855 5.8 1.0935 5.8H5.2215V1.648C5.2215 1.44 5.2855 1.272 5.4135 1.144C5.5575 1 5.7335 0.927999 5.9415 0.927999C6.1655 0.927999 6.3415 1 6.4695 1.144C6.6135 1.272 6.6855 1.44 6.6855 1.648V5.8H10.8135C11.0215 5.8 11.1895 5.872 11.3175 6.016C11.4615 6.144 11.5335 6.312 11.5335 6.52C11.5335 6.728 11.4615 6.904 11.3175 7.048C11.1895 7.176 11.0215 7.24 10.8135 7.24H6.6855V11.392C6.6855 11.6 6.6135 11.776 6.4695 11.92C6.3415 12.048 6.1655 12.112 5.9415 12.112Z" fill="#918BC5"/>
</svg>
