<svg width="40" height="37" viewBox="0 0 40 37" fill="none" xmlns="http://www.w3.org/2000/svg">
<path d="M7.17132 10.3778L15.832 15.3328C15.9851 15.4204 16.1671 15.4441 16.3379 15.3988C16.5086 15.3534 16.6543 15.2427 16.7427 15.091L20.4147 8.78687L21.542 10.7226L19.2333 12.044C19.1062 12.1164 19.0066 12.2284 18.9502 12.3625C18.8938 12.4967 18.8835 12.6456 18.9211 12.7861C18.9587 12.9266 19.042 13.0509 19.1581 13.1397C19.2742 13.2285 19.4167 13.2769 19.5633 13.2774L28.4033 13.3164L25.012 15.2568C24.8589 15.3444 24.7472 15.4887 24.7014 15.6579C24.6556 15.8272 24.6796 16.0075 24.768 16.1593L28.44 22.4627H26.1847V19.82C26.1839 19.6752 26.1352 19.5347 26.0459 19.42C25.9567 19.3053 25.8319 19.2229 25.6908 19.1853C25.5497 19.1478 25.4 19.1573 25.2649 19.2123C25.1297 19.2672 25.0165 19.3647 24.9427 19.4897L20.276 27.4177C20.2184 27.5154 20.1872 27.6261 20.1852 27.7393C20.1832 27.8524 20.2106 27.9642 20.2647 28.0638L24.9313 36.6525C24.9884 36.7575 25.073 36.8452 25.1763 36.9064C25.2796 36.9676 25.3977 36.9999 25.518 37C25.5731 36.9999 25.6279 36.9932 25.6813 36.9802C25.8253 36.9441 25.9529 36.8615 26.0441 36.7454C26.1353 36.6294 26.1847 36.4864 26.1847 36.3393V33.694H31.7513C31.8684 33.694 31.9833 33.6635 32.0847 33.6055C32.186 33.5475 32.2702 33.4641 32.3287 33.3637L39.9107 20.3485C39.9692 20.2481 40 20.1342 40 20.0182C40 19.9022 39.9692 19.7883 39.9107 19.6879L34.5833 10.5436C34.5396 10.4684 34.4813 10.4024 34.4118 10.3496C34.3422 10.2967 34.2629 10.2579 34.1783 10.2355C34.0936 10.213 34.0053 10.2073 33.9185 10.2187C33.8316 10.2301 33.7479 10.2583 33.672 10.3018L29.6427 12.6075L34.5673 4.70527C34.6456 4.58009 34.6793 4.43262 34.6633 4.28625C34.6473 4.13988 34.5824 4.003 34.4789 3.89735C34.3755 3.7917 34.2393 3.72333 34.0922 3.70309C33.945 3.68284 33.7953 3.71189 33.6667 3.78562L31.3573 5.10696L28.574 0.330334C28.5158 0.230385 28.4321 0.147297 28.3314 0.0893398C28.2307 0.0313832 28.1165 0.000580822 28 0H12.8327C12.7156 2.94606e-06 12.6007 0.0305312 12.4993 0.0885167C12.398 0.146502 12.3138 0.229902 12.2553 0.330334L6.92732 9.47529C6.83892 9.62703 6.81496 9.80736 6.86072 9.9766C6.90648 10.1458 7.01821 10.2901 7.17132 10.3778ZM31.3667 32.3727H25.518C25.3412 32.3727 25.1716 32.4423 25.0466 32.5662C24.9216 32.6901 24.8513 32.8581 24.8513 33.0334V33.7165L21.616 27.7612L24.8513 22.2645V23.1233C24.8513 23.2986 24.9216 23.4666 25.0466 23.5905C25.1716 23.7144 25.3412 23.784 25.518 23.784H36.37L31.3667 32.3727ZM33.7613 11.7771L34.9833 13.874H32.6667V15.1953H35.7533L36.5227 16.5167H34V17.838H37.2927L38.0627 19.1593H35.3333V20.4807H38.2947L37.14 22.4627H29.98L26.256 16.0714L33.7613 11.7771ZM30.5333 6.3424C30.6218 6.49414 30.7674 6.60486 30.9381 6.65021C31.1089 6.69555 31.2909 6.67181 31.444 6.58421L32.0407 6.24264L28.4547 11.9977L22.0327 11.9686L22.784 11.5392C22.9371 11.4516 23.0488 11.3073 23.0946 11.1381C23.1404 10.9688 23.1164 10.7885 23.028 10.6367L17.6047 1.32133H27.612L30.5333 6.3424ZM13.2173 1.32133H16.0667L16.8367 2.64267H15.3333V3.964H17.6047L18.374 5.28534H16.6667V6.60667H19.144L19.6447 7.46554L19.3333 8.00068V7.928H16.6667V9.24934H18.606L15.9213 13.8582L8.41599 9.56382L13.2173 1.32133Z" fill="white"/>
<path d="M6.66666 31.6559V31.712H6.69932L7.67132 33.3802C7.72983 33.4806 7.81399 33.564 7.91533 33.622C8.01668 33.68 8.13164 33.7105 8.24866 33.7105H18.6667C18.8435 33.7105 19.013 33.6409 19.1381 33.517C19.2631 33.3931 19.3333 33.2251 19.3333 33.0499V23.1399C19.3333 22.9646 19.2631 22.7966 19.1381 22.6727C19.013 22.5488 18.8435 22.4792 18.6667 22.4792H11.56L12.6873 20.5441L14.9967 21.8654C15.1236 21.9381 15.2711 21.9673 15.4165 21.9485C15.5619 21.9297 15.6969 21.864 15.8008 21.7614C15.9046 21.6589 15.9715 21.5253 15.991 21.3813C16.0105 21.2373 15.9815 21.091 15.9087 20.9649L11.314 12.996C11.2571 12.8982 11.1759 12.8165 11.0781 12.7587C10.9803 12.7009 10.8692 12.6688 10.7553 12.6656L0.916651 12.3743C0.767678 12.3676 0.620883 12.4116 0.500602 12.499C0.38032 12.5863 0.293776 12.7118 0.255316 12.8546C0.214139 12.9965 0.222097 13.1479 0.277923 13.2848C0.333748 13.4217 0.434223 13.5361 0.563317 13.6097L2.87265 14.9311L0.0893165 19.7057C0.0308042 19.8062 0 19.9201 0 20.036C0 20.152 0.0308042 20.2659 0.0893165 20.3664L6.66666 31.6559ZM18 23.8005V32.3892H8.63332L8.23866 31.712H9.99999V30.3907H7.46666L7.20732 29.9461L7.72066 29.0694H10.6667V27.748H8.49066L9.25999 26.4267H12V25.1053H10.03L10.79 23.8005H18ZM4.36065 15.0163C4.44906 14.8646 4.47301 14.6842 4.42725 14.515C4.38149 14.3457 4.26977 14.2014 4.11665 14.1138L3.51665 13.7729L10.3387 13.9711L13.5247 19.4969L12.7733 19.0669C12.6202 18.9792 12.4382 18.9555 12.2675 19.0009C12.0967 19.0462 11.9511 19.1569 11.8627 19.3087L6.43666 28.6241L1.43665 20.0354L4.36065 15.0163Z" fill="white"/>
</svg>
