<svg width="30" height="25" viewBox="0 0 30 25" fill="none" xmlns="http://www.w3.org/2000/svg">
<path d="M28.7449 15.2693L23.693 20.3212M23.693 20.3212L18.4633 15.0914M23.693 20.3212L23.3284 12.6145C23.2882 10.2501 22.4807 7.93613 21.0274 6.02139C19.5742 4.10665 17.5539 2.69485 15.2711 1.99874C12.9884 1.30263 10.5667 1.35992 8.37115 2.16198C6.17557 2.96403 4.325 4.4674 3.0983 6.44554C1.8716 8.42369 1.33523 10.7694 1.57002 13.1293C1.80482 15.4891 2.79805 17.7352 4.40005 19.5292C6.00205 21.3231 8.12603 22.5676 10.4519 23.0751C12.7778 23.5827 15.1796 23.3259 17.2953 22.3433" stroke="#918BC5" stroke-width="2" stroke-linecap="round" stroke-linejoin="round"/>
</svg>
