<svg width="20" height="22" viewBox="0 0 20 22" fill="none" xmlns="http://www.w3.org/2000/svg">
<path d="M13.41 12.51L6.58 16.49M6.59 5.51L13.41 9.49M1 4C1 5.65685 2.34315 7 4 7C5.65685 7 7 5.65685 7 4C7 2.34315 5.65685 1 4 1C2.34315 1 1 2.34315 1 4ZM13 11C13 12.6569 14.3431 14 16 14C17.6569 14 19 12.6569 19 11C19 9.34315 17.6569 8 16 8C14.3431 8 13 9.34315 13 11ZM1 18C1 19.6569 2.34315 21 4 21C5.65685 21 7 19.6569 7 18C7 16.3431 5.65685 15 4 15C2.34315 15 1 16.3431 1 18Z" stroke="#918BC5" stroke-width="2" stroke-linecap="round" stroke-linejoin="round"/>
</svg>
