<svg width="30" height="24" viewBox="0 0 30 24" fill="none" xmlns="http://www.w3.org/2000/svg">
<mask id="path-1-inside-1_1212_1409" fill="white">
<path d="M20.625 5.53846C20.5659 5.53846 20.5087 5.54585 20.4497 5.54677C20.5566 5.25508 20.625 4.944 20.625 4.61538V2.76923C20.625 1.24246 19.3631 0 17.8125 0H2.8125C1.26187 0 0 1.24246 0 2.76923V4.61538C0 5.892 0.885938 6.95908 2.08125 7.27754C1.95094 7.59692 1.875 7.94308 1.875 8.30769V10.1538C1.875 10.5185 1.95094 10.8646 2.08125 11.184C0.885938 11.5025 0 12.5695 0 13.8462V15.6923C0 16.9689 0.885938 18.036 2.08125 18.3545C1.95094 18.6738 1.875 19.02 1.875 19.3846V21.2308C1.875 22.7575 3.13687 24 4.6875 24C4.6875 24 20.4178 24 20.625 24C25.7944 24 30 19.8591 30 14.7692C30 9.67939 25.7944 5.53846 20.625 5.53846ZM12.0384 11.0769H4.6875C4.17094 11.0769 3.75 10.6625 3.75 10.1538V8.30769C3.75 7.79908 4.17094 7.38462 4.6875 7.38462H15.0234C13.7316 8.33723 12.6937 9.60462 12.0384 11.0769ZM1.875 2.76923C1.875 2.26062 2.29594 1.84615 2.8125 1.84615H17.8125C18.3291 1.84615 18.75 2.26062 18.75 2.76923V4.61538C18.75 5.124 18.3291 5.53846 17.8125 5.53846H2.8125C2.29594 5.53846 1.875 5.124 1.875 4.61538V2.76923ZM1.875 13.8462C1.875 13.3375 2.29594 12.9231 2.8125 12.9231H11.4394C11.3156 13.5194 11.25 14.1369 11.25 14.7692C11.25 15.4015 11.3156 16.0191 11.4394 16.6154H2.8125C2.29594 16.6154 1.875 16.2009 1.875 15.6923V13.8462ZM4.6875 22.1538C4.17094 22.1538 3.75 21.7394 3.75 21.2308V19.3846C3.75 18.876 4.17094 18.4615 4.6875 18.4615H12.0384C12.6937 19.9338 13.7316 21.2012 15.0244 22.1538H4.6875ZM20.625 22.1538C16.4897 22.1538 13.125 18.8409 13.125 14.7692C13.125 10.6975 16.4897 7.38462 20.625 7.38462C24.7603 7.38462 28.125 10.6975 28.125 14.7692C28.125 18.8409 24.7603 22.1538 20.625 22.1538Z"/>
<path d="M20.625 12H22.5C23.0175 12 23.4375 11.5865 23.4375 11.0769C23.4375 10.5674 23.0175 10.1538 22.5 10.1538H21.5625C21.5625 9.64431 21.1425 9.23077 20.625 9.23077C20.1075 9.23077 19.6875 9.64431 19.6875 10.1538V10.3237C18.5991 10.7058 17.8125 11.7212 17.8125 12.9231C17.8125 14.4498 19.0744 15.6923 20.625 15.6923C21.1416 15.6923 21.5625 16.1068 21.5625 16.6154C21.5625 17.124 21.1416 17.5385 20.625 17.5385H18.75C18.2325 17.5385 17.8125 17.952 17.8125 18.4615C17.8125 18.9711 18.2325 19.3846 18.75 19.3846H19.6875C19.6875 19.8942 20.1075 20.3077 20.625 20.3077C21.1425 20.3077 21.5625 19.8942 21.5625 19.3846V19.2148C22.6509 18.8326 23.4375 17.8172 23.4375 16.6154C23.4375 15.0886 22.1756 13.8462 20.625 13.8462C20.1084 13.8462 19.6875 13.4317 19.6875 12.9231C19.6875 12.4145 20.1084 12 20.625 12Z"/>
</mask>
<path d="M20.4497 5.54677L19.5107 5.20274L19.01 6.56939L20.4653 6.54665L20.4497 5.54677ZM2.08125 7.27754L3.00715 7.65531L3.43623 6.60366L2.3387 6.31125L2.08125 7.27754ZM2.08125 11.184L2.3387 12.1503L3.43623 11.8579L3.00715 10.8062L2.08125 11.184ZM2.08125 18.3545L3.00715 18.7322L3.43623 17.6806L2.3387 17.3882L2.08125 18.3545ZM12.0384 11.0769V12.0769H12.6879L12.952 11.4836L12.0384 11.0769ZM15.0234 7.38462L15.6169 8.18946L18.0645 6.38462H15.0234V7.38462ZM11.4394 12.9231L12.4185 13.1263L12.6682 11.9231H11.4394V12.9231ZM11.4394 16.6154V17.6154H12.6682L12.4185 16.4122L11.4394 16.6154ZM12.0384 18.4615L12.952 18.0549L12.6879 17.4615H12.0384V18.4615ZM15.0244 22.1538V23.1538H18.0672L15.6176 21.3488L15.0244 22.1538ZM21.5625 10.1538H20.5625V11.1538H21.5625V10.1538ZM19.6875 10.3237L20.0188 11.2672L20.6875 11.0324V10.3237H19.6875ZM19.6875 19.3846H20.6875V18.3846H19.6875V19.3846ZM21.5625 19.2148L21.2312 18.2712L20.5625 18.506V19.2148H21.5625ZM20.625 4.53846C20.5577 4.53846 20.4976 4.54267 20.47 4.54454C20.4329 4.54704 20.4323 4.54692 20.4341 4.54689L20.4653 6.54665C20.5262 6.5457 20.5837 6.54142 20.6047 6.54C20.6352 6.53794 20.6333 6.53846 20.625 6.53846V4.53846ZM21.3886 5.8908C21.527 5.51312 21.625 5.08465 21.625 4.61538H19.625C19.625 4.80335 19.5861 4.99704 19.5107 5.20274L21.3886 5.8908ZM21.625 4.61538V2.76923H19.625V4.61538H21.625ZM21.625 2.76923C21.625 0.675617 19.9007 -1 17.8125 -1V1C18.8255 1 19.625 1.80931 19.625 2.76923H21.625ZM17.8125 -1H2.8125V1H17.8125V-1ZM2.8125 -1C0.724264 -1 -1 0.675617 -1 2.76923H1C1 1.80931 1.79949 1 2.8125 1V-1ZM-1 2.76923V4.61538H1V2.76923H-1ZM-1 4.61538C-1 6.3732 0.218355 7.8161 1.82381 8.24383L2.3387 6.31125C1.55352 6.10205 1 5.4108 1 4.61538H-1ZM1.15535 6.89976C0.98058 7.32812 0.875 7.8022 0.875 8.30769H2.875C2.875 8.08395 2.9213 7.86573 3.00715 7.65531L1.15535 6.89976ZM0.875 8.30769V10.1538H2.875V8.30769H0.875ZM0.875 10.1538C0.875 10.6593 0.98058 11.1334 1.15535 11.5618L3.00715 10.8062C2.9213 10.5958 2.875 10.3776 2.875 10.1538H0.875ZM1.82381 10.2177C0.218355 10.6454 -1 12.0883 -1 13.8462H1C1 13.0507 1.55352 12.3595 2.3387 12.1503L1.82381 10.2177ZM-1 13.8462V15.6923H1V13.8462H-1ZM-1 15.6923C-1 17.4501 0.218355 18.893 1.82381 19.3208L2.3387 17.3882C1.55352 17.179 1 16.4877 1 15.6923H-1ZM1.15535 17.9767C0.98058 18.405 0.875 18.8791 0.875 19.3846H2.875C2.875 19.1609 2.92129 18.9427 3.00715 18.7322L1.15535 17.9767ZM0.875 19.3846V21.2308H2.875V19.3846H0.875ZM0.875 21.2308C0.875 23.3244 2.59926 25 4.6875 25V23C3.67449 23 2.875 22.1907 2.875 21.2308H0.875ZM4.6875 24C4.6875 25 4.68756 25 4.68768 25C4.6878 25 4.68798 25 4.68822 25C4.68846 25 4.68876 25 4.68911 25C4.68947 25 4.68989 25 4.69037 25C4.69084 25 4.69138 25 4.69197 25C4.69257 25 4.69322 25 4.69393 25C4.69464 25 4.69541 25 4.69624 25C4.69707 25 4.69796 25 4.6989 25C4.69985 25 4.70085 25 4.70191 25C4.70297 25 4.70409 25 4.70527 25C4.70645 25 4.70768 25 4.70897 25C4.71026 25 4.71161 25 4.71302 25C4.71443 25 4.71589 25 4.71741 25C4.71893 25 4.72051 25 4.72214 25C4.72378 25 4.72547 25 4.72722 25C4.72897 25 4.73077 25 4.73263 25C4.73449 25 4.73641 25 4.73838 25C4.74035 25 4.74238 25 4.74447 25C4.74655 25 4.74869 25 4.75089 25C4.75309 25 4.75534 25 4.75764 25C4.75995 25 4.76231 25 4.76473 25C4.76715 25 4.76962 25 4.77215 25C4.77468 25 4.77726 25 4.7799 25C4.78253 25 4.78523 25 4.78797 25C4.79072 25 4.79352 25 4.79637 25C4.79923 25 4.80214 25 4.8051 25C4.80806 25 4.81108 25 4.81415 25C4.81722 25 4.82035 25 4.82352 25C4.8267 25 4.82993 25 4.83322 25C4.8365 25 4.83984 25 4.84323 25C4.84662 25 4.85006 25 4.85356 25C4.85706 25 4.86061 25 4.86421 25C4.86781 25 4.87147 25 4.87517 25C4.87888 25 4.88264 25 4.88645 25C4.89026 25 4.89412 25 4.89804 25C4.90196 25 4.90592 25 4.90994 25C4.91396 25 4.91803 25 4.92215 25C4.92627 25 4.93045 25 4.93467 25C4.93889 25 4.94317 25 4.9475 25C4.95182 25 4.9562 25 4.96063 25C4.96506 25 4.96953 25 4.97406 25C4.97859 25 4.98317 25 4.9878 25C4.99243 25 4.99711 25 5.00184 25C5.00657 25 5.01135 25 5.01618 25C5.02101 25 5.02589 25 5.03082 25C5.03575 25 5.04073 25 5.04576 25C5.05078 25 5.05586 25 5.06099 25C5.06611 25 5.07129 25 5.07651 25C5.08174 25 5.08701 25 5.09233 25C5.09765 25 5.10302 25 5.10844 25C5.11386 25 5.11933 25 5.12484 25C5.13036 25 5.13592 25 5.14153 25C5.14714 25 5.1528 25 5.15851 25C5.16421 25 5.16997 25 5.17577 25C5.18157 25 5.18742 25 5.19332 25C5.19921 25 5.20516 25 5.21115 25C5.21714 25 5.22317 25 5.22926 25C5.23534 25 5.24147 25 5.24765 25C5.25383 25 5.26005 25 5.26632 25C5.27259 25 5.27891 25 5.28527 25C5.29163 25 5.29804 25 5.3045 25C5.31095 25 5.31745 25 5.324 25C5.33054 25 5.33713 25 5.34377 25C5.35041 25 5.35709 25 5.36382 25C5.37054 25 5.37732 25 5.38413 25C5.39095 25 5.39781 25 5.40472 25C5.41162 25 5.41858 25 5.42557 25C5.43257 25 5.43961 25 5.44669 25C5.45378 25 5.4609 25 5.46808 25C5.47525 25 5.48246 25 5.48972 25C5.49698 25 5.50429 25 5.51163 25C5.51898 25 5.52637 25 5.53381 25C5.54124 25 5.54872 25 5.55624 25C5.56376 25 5.57132 25 5.57893 25C5.58653 25 5.59418 25 5.60187 25C5.60956 25 5.6173 25 5.62507 25C5.63285 25 5.64067 25 5.64853 25C5.65639 25 5.66429 25 5.67223 25C5.68018 25 5.68816 25 5.69619 25C5.70422 25 5.71229 25 5.7204 25C5.72851 25 5.73666 25 5.74486 25C5.75305 25 5.76128 25 5.76956 25C5.77783 25 5.78615 25 5.79451 25C5.80286 25 5.81126 25 5.8197 25C5.82814 25 5.83662 25 5.84514 25C5.85365 25 5.86221 25 5.87081 25C5.87941 25 5.88805 25 5.89673 25C5.90541 25 5.91413 25 5.92288 25C5.93164 25 5.94044 25 5.94928 25C5.95811 25 5.96699 25 5.9759 25C5.98482 25 5.99377 25 6.00276 25C6.01176 25 6.02079 25 6.02986 25C6.03893 25 6.04804 25 6.05719 25C6.06633 25 6.07552 25 6.08474 25C6.09397 25 6.10323 25 6.11253 25C6.12183 25 6.13117 25 6.14054 25C6.14992 25 6.15933 25 6.16878 25C6.17823 25 6.18772 25 6.19724 25C6.20677 25 6.21633 25 6.22593 25C6.23553 25 6.24516 25 6.25484 25C6.26451 25 6.27422 25 6.28396 25C6.29371 25 6.30349 25 6.31331 25C6.32313 25 6.33298 25 6.34287 25C6.35277 25 6.36269 25 6.37266 25C6.38262 25 6.39262 25 6.40265 25C6.41268 25 6.42275 25 6.43286 25C6.44296 25 6.4531 25 6.46328 25C6.47346 25 6.48367 25 6.49391 25C6.50416 25 6.51444 25 6.52475 25C6.53507 25 6.54542 25 6.5558 25C6.56618 25 6.5766 25 6.58705 25C6.59751 25 6.60799 25 6.61851 25C6.62903 25 6.63959 25 6.65018 25C6.66076 25 6.67139 25 6.68204 25C6.6927 25 6.70339 25 6.71411 25C6.72483 25 6.73559 25 6.74637 25C6.75716 25 6.76798 25 6.77884 25C6.78969 25 6.80058 25 6.8115 25C6.82242 25 6.83337 25 6.84435 25C6.85534 25 6.86635 25 6.8774 25C6.88845 25 6.89953 25 6.91064 25C6.92175 25 6.9329 25 6.94407 25C6.95525 25 6.96646 25 6.97769 25C6.98893 25 7.0002 25 7.01151 25C7.02281 25 7.03414 25 7.0455 25C7.05686 25 7.06826 25 7.07968 25C7.09111 25 7.10256 25 7.11405 25C7.12554 25 7.13705 25 7.1486 25C7.16015 25 7.17172 25 7.18333 25C7.19494 25 7.20657 25 7.21824 25C7.2299 25 7.2416 25 7.25333 25C7.26505 25 7.27681 25 7.28859 25C7.30038 25 7.31219 25 7.32403 25C7.33588 25 7.34775 25 7.35965 25C7.37155 25 7.38348 25 7.39544 25C7.40739 25 7.41938 25 7.43139 25C7.44341 25 7.45545 25 7.46752 25C7.47959 25 7.49169 25 7.50382 25C7.51595 25 7.5281 25 7.54029 25C7.55247 25 7.56468 25 7.57692 25C7.58916 25 7.60142 25 7.61371 25C7.62601 25 7.63832 25 7.65067 25C7.66302 25 7.67539 25 7.68779 25C7.70019 25 7.71262 25 7.72507 25C7.73752 25 7.75 25 7.76251 25C7.77502 25 7.78755 25 7.80011 25C7.81267 25 7.82525 25 7.83786 25C7.85047 25 7.86311 25 7.87577 25C7.88843 25 7.90112 25 7.91383 25C7.92654 25 7.93928 25 7.95204 25C7.9648 25 7.97759 25 7.9904 25C8.00322 25 8.01605 25 8.02892 25C8.04178 25 8.05466 25 8.06758 25C8.08049 25 8.09342 25 8.10638 25C8.11934 25 8.13232 25 8.14533 25C8.15834 25 8.17137 25 8.18443 25C8.19748 25 8.21056 25 8.22366 25C8.23676 25 8.24989 25 8.26304 25C8.27619 25 8.28936 25 8.30256 25C8.31575 25 8.32897 25 8.34221 25C8.35545 25 8.36872 25 8.382 25C8.39529 25 8.4086 25 8.42193 25C8.43526 25 8.44861 25 8.46199 25C8.47536 25 8.48876 25 8.50218 25C8.5156 25 8.52904 25 8.5425 25C8.55596 25 8.56945 25 8.58295 25C8.59646 25 8.60999 25 8.62353 25C8.63708 25 8.65065 25 8.66424 25C8.67783 25 8.69144 25 8.70507 25C8.71871 25 8.73236 25 8.74603 25C8.7597 25 8.7734 25 8.78711 25C8.80082 25 8.81456 25 8.82831 25C8.84206 25 8.85584 25 8.86963 25C8.88342 25 8.89723 25 8.91107 25C8.9249 25 8.93875 25 8.95262 25C8.96649 25 8.98038 25 8.99429 25C9.0082 25 9.02213 25 9.03608 25C9.05002 25 9.06399 25 9.07798 25C9.09196 25 9.10596 25 9.11998 25C9.134 25 9.14804 25 9.1621 25C9.17616 25 9.19024 25 9.20433 25C9.21842 25 9.23254 25 9.24666 25C9.26079 25 9.27494 25 9.2891 25C9.30327 25 9.31745 25 9.33165 25C9.34585 25 9.36006 25 9.3743 25C9.38853 25 9.40278 25 9.41705 25C9.43131 25 9.4456 25 9.4599 25C9.47419 25 9.48851 25 9.50284 25C9.51718 25 9.53152 25 9.54589 25C9.56025 25 9.57463 25 9.58903 25C9.60343 25 9.61784 25 9.63227 25C9.64669 25 9.66114 25 9.6756 25C9.69005 25 9.70453 25 9.71902 25C9.73351 25 9.74801 25 9.76253 25C9.77705 25 9.79158 25 9.80613 25C9.82068 25 9.83524 25 9.84982 25C9.86439 25 9.87898 25 9.89359 25C9.9082 25 9.92282 25 9.93745 25C9.95208 25 9.96673 25 9.98139 25C9.99605 25 10.0107 25 10.0254 25C10.0401 25 10.0548 25 10.0695 25C10.0842 25 10.099 25 10.1137 25C10.1284 25 10.1432 25 10.158 25C10.1727 25 10.1875 25 10.2023 25C10.2171 25 10.2319 25 10.2467 25C10.2615 25 10.2764 25 10.2912 25C10.306 25 10.3209 25 10.3358 25C10.3506 25 10.3655 25 10.3804 25C10.3953 25 10.4102 25 10.4251 25C10.44 25 10.4549 25 10.4699 25C10.4848 25 10.4997 25 10.5147 25C10.5297 25 10.5446 25 10.5596 25C10.5746 25 10.5896 25 10.6046 25C10.6196 25 10.6346 25 10.6496 25C10.6646 25 10.6796 25 10.6947 25C10.7097 25 10.7248 25 10.7398 25C10.7549 25 10.7699 25 10.785 25C10.8001 25 10.8152 25 10.8303 25C10.8454 25 10.8605 25 10.8756 25C10.8907 25 10.9058 25 10.921 25C10.9361 25 10.9512 25 10.9664 25C10.9815 25 10.9967 25 11.0119 25C11.027 25 11.0422 25 11.0574 25C11.0726 25 11.0878 25 11.103 25C11.1182 25 11.1334 25 11.1486 25C11.1638 25 11.179 25 11.1943 25C11.2095 25 11.2247 25 11.24 25C11.2552 25 11.2705 25 11.2857 25C11.301 25 11.3162 25 11.3315 25C11.3468 25 11.3621 25 11.3774 25C11.3926 25 11.4079 25 11.4232 25C11.4385 25 11.4538 25 11.4691 25C11.4844 25 11.4998 25 11.5151 25C11.5304 25 11.5457 25 11.5611 25C11.5764 25 11.5917 25 11.6071 25C11.6224 25 11.6378 25 11.6531 25C11.6685 25 11.6838 25 11.6992 25C11.7146 25 11.7299 25 11.7453 25C11.7607 25 11.7761 25 11.7914 25C11.8068 25 11.8222 25 11.8376 25C11.853 25 11.8684 25 11.8838 25C11.8992 25 11.9146 25 11.93 25C11.9454 25 11.9608 25 11.9762 25C11.9916 25 12.007 25 12.0225 25C12.0379 25 12.0533 25 12.0687 25C12.0842 25 12.0996 25 12.115 25C12.1305 25 12.1459 25 12.1613 25C12.1768 25 12.1922 25 12.2076 25C12.2231 25 12.2385 25 12.254 25C12.2694 25 12.2849 25 12.3003 25C12.3158 25 12.3312 25 12.3467 25C12.3621 25 12.3776 25 12.393 25C12.4085 25 12.4239 25 12.4394 25C12.4549 25 12.4703 25 12.4858 25C12.5012 25 12.5167 25 12.5322 25C12.5476 25 12.5631 25 12.5786 25C12.594 25 12.6095 25 12.6249 25C12.6404 25 12.6559 25 12.6713 25C12.6868 25 12.7023 25 12.7177 25C12.7332 25 12.7487 25 12.7641 25C12.7796 25 12.795 25 12.8105 25C12.826 25 12.8414 25 12.8569 25C12.8723 25 12.8878 25 12.9033 25C12.9187 25 12.9342 25 12.9496 25C12.9651 25 12.9805 25 12.996 25C13.0114 25 13.0269 25 13.0423 25C13.0578 25 13.0732 25 13.0887 25C13.1041 25 13.1195 25 13.135 25C13.1504 25 13.1659 25 13.1813 25C13.1967 25 13.2122 25 13.2276 25C13.243 25 13.2584 25 13.2739 25C13.2893 25 13.3047 25 13.3201 25C13.3355 25 13.3509 25 13.3664 25C13.3818 25 13.3972 25 13.4126 25C13.428 25 13.4434 25 13.4588 25C13.4742 25 13.4895 25 13.5049 25C13.5203 25 13.5357 25 13.5511 25C13.5665 25 13.5818 25 13.5972 25C13.6126 25 13.6279 25 13.6433 25C13.6586 25 13.674 25 13.6893 25C13.7047 25 13.72 25 13.7354 25C13.7507 25 13.766 25 13.7814 25C13.7967 25 13.812 25 13.8273 25C13.8426 25 13.8579 25 13.8732 25C13.8885 25 13.9038 25 13.9191 25C13.9344 25 13.9497 25 13.965 25C13.9803 25 13.9955 25 14.0108 25C14.0261 25 14.0413 25 14.0566 25C14.0718 25 14.0871 25 14.1023 25C14.1175 25 14.1328 25 14.148 25C14.1632 25 14.1784 25 14.1936 25C14.2088 25 14.224 25 14.2392 25C14.2544 25 14.2696 25 14.2848 25C14.2999 25 14.3151 25 14.3302 25C14.3454 25 14.3606 25 14.3757 25C14.3908 25 14.406 25 14.4211 25C14.4362 25 14.4513 25 14.4664 25C14.4815 25 14.4966 25 14.5117 25C14.5268 25 14.5419 25 14.5569 25C14.572 25 14.5871 25 14.6021 25C14.6172 25 14.6322 25 14.6472 25C14.6622 25 14.6773 25 14.6923 25C14.7073 25 14.7223 25 14.7373 25C14.7522 25 14.7672 25 14.7822 25C14.7971 25 14.8121 25 14.827 25C14.842 25 14.8569 25 14.8718 25C14.8868 25 14.9017 25 14.9166 25C14.9315 25 14.9463 25 14.9612 25C14.9761 25 14.991 25 15.0058 25C15.0207 25 15.0355 25 15.0503 25C15.0651 25 15.08 25 15.0948 25C15.1096 25 15.1244 25 15.1391 25C15.1539 25 15.1687 25 15.1834 25C15.1982 25 15.2129 25 15.2276 25C15.2424 25 15.2571 25 15.2718 25C15.2865 25 15.3012 25 15.3158 25C15.3305 25 15.3452 25 15.3598 25C15.3744 25 15.3891 25 15.4037 25C15.4183 25 15.4329 25 15.4475 25C15.4621 25 15.4767 25 15.4912 25C15.5058 25 15.5203 25 15.5349 25C15.5494 25 15.5639 25 15.5784 25C15.5929 25 15.6074 25 15.6219 25C15.6363 25 15.6508 25 15.6652 25C15.6797 25 15.6941 25 15.7085 25C15.7229 25 15.7373 25 15.7517 25C15.7661 25 15.7804 25 15.7948 25C15.8091 25 15.8234 25 15.8378 25C15.8521 25 15.8664 25 15.8806 25C15.8949 25 15.9092 25 15.9234 25C15.9377 25 15.9519 25 15.9661 25C15.9803 25 15.9945 25 16.0087 25C16.0229 25 16.037 25 16.0512 25C16.0653 25 16.0795 25 16.0936 25C16.1077 25 16.1218 25 16.1358 25C16.1499 25 16.164 25 16.178 25C16.192 25 16.206 25 16.22 25C16.234 25 16.248 25 16.262 25C16.2759 25 16.2899 25 16.3038 25C16.3177 25 16.3316 25 16.3455 25C16.3594 25 16.3733 25 16.3871 25C16.401 25 16.4148 25 16.4286 25C16.4424 25 16.4562 25 16.47 25C16.4838 25 16.4975 25 16.5112 25C16.525 25 16.5387 25 16.5524 25C16.566 25 16.5797 25 16.5934 25C16.607 25 16.6206 25 16.6342 25C16.6478 25 16.6614 25 16.675 25C16.6886 25 16.7021 25 16.7156 25C16.7292 25 16.7427 25 16.7561 25C16.7696 25 16.7831 25 16.7965 25C16.8099 25 16.8234 25 16.8368 25C16.8501 25 16.8635 25 16.8769 25C16.8902 25 16.9035 25 16.9168 25C16.9301 25 16.9434 25 16.9567 25C16.9699 25 16.9832 25 16.9964 25C17.0096 25 17.0228 25 17.036 25C17.0491 25 17.0623 25 17.0754 25C17.0885 25 17.1016 25 17.1147 25C17.1278 25 17.1408 25 17.1538 25C17.1669 25 17.1799 25 17.1928 25C17.2058 25 17.2188 25 17.2317 25C17.2446 25 17.2575 25 17.2704 25C17.2833 25 17.2962 25 17.309 25C17.3218 25 17.3346 25 17.3474 25C17.3602 25 17.373 25 17.3857 25C17.3984 25 17.4111 25 17.4238 25C17.4365 25 17.4492 25 17.4618 25C17.4744 25 17.487 25 17.4996 25C17.5122 25 17.5247 25 17.5373 25C17.5498 25 17.5623 25 17.5748 25C17.5872 25 17.5997 25 17.6121 25C17.6245 25 17.6369 25 17.6493 25C17.6616 25 17.674 25 17.6863 25C17.6986 25 17.7109 25 17.7232 25C17.7354 25 17.7477 25 17.7599 25C17.7721 25 17.7842 25 17.7964 25C17.8085 25 17.8207 25 17.8328 25C17.8448 25 17.8569 25 17.8689 25C17.881 25 17.893 25 17.905 25C17.917 25 17.9289 25 17.9408 25C17.9528 25 17.9646 25 17.9765 25C17.9884 25 18.0002 25 18.012 25C18.0238 25 18.0356 25 18.0474 25C18.0591 25 18.0708 25 18.0825 25C18.0942 25 18.1059 25 18.1175 25C18.1291 25 18.1407 25 18.1523 25C18.1639 25 18.1754 25 18.1869 25C18.1984 25 18.2099 25 18.2214 25C18.2328 25 18.2442 25 18.2556 25C18.267 25 18.2784 25 18.2897 25C18.301 25 18.3123 25 18.3236 25C18.3348 25 18.3461 25 18.3573 25C18.3685 25 18.3796 25 18.3908 25C18.4019 25 18.413 25 18.4241 25C18.4352 25 18.4462 25 18.4572 25C18.4682 25 18.4792 25 18.4901 25C18.5011 25 18.512 25 18.5229 25C18.5338 25 18.5446 25 18.5554 25C18.5662 25 18.577 25 18.5878 25C18.5985 25 18.6092 25 18.6199 25C18.6306 25 18.6412 25 18.6519 25C18.6625 25 18.673 25 18.6836 25C18.6941 25 18.7047 25 18.7151 25C18.7256 25 18.7361 25 18.7465 25C18.7569 25 18.7673 25 18.7776 25C18.7879 25 18.7982 25 18.8085 25C18.8188 25 18.829 25 18.8392 25C18.8494 25 18.8596 25 18.8697 25C18.8799 25 18.89 25 18.9 25C18.9101 25 18.9201 25 18.9301 25C18.9401 25 18.9501 25 18.96 25C18.9699 25 18.9798 25 18.9896 25C18.9995 25 19.0093 25 19.0191 25C19.0288 25 19.0386 25 19.0483 25C19.058 25 19.0676 25 19.0773 25C19.0869 25 19.0965 25 19.106 25C19.1156 25 19.1251 25 19.1346 25C19.1441 25 19.1535 25 19.1629 25C19.1723 25 19.1817 25 19.191 25C19.2004 25 19.2096 25 19.2189 25C19.2282 25 19.2374 25 19.2465 25C19.2557 25 19.2649 25 19.274 25C19.2831 25 19.2921 25 19.3011 25C19.3102 25 19.3192 25 19.3281 25C19.337 25 19.346 25 19.3548 25C19.3637 25 19.3725 25 19.3813 25C19.3901 25 19.3988 25 19.4076 25C19.4163 25 19.4249 25 19.4336 25C19.4422 25 19.4508 25 19.4593 25C19.4679 25 19.4764 25 19.4849 25C19.4933 25 19.5018 25 19.5102 25C19.5185 25 19.5269 25 19.5352 25C19.5435 25 19.5518 25 19.56 25C19.5682 25 19.5764 25 19.5846 25C19.5927 25 19.6008 25 19.6089 25C19.6169 25 19.6249 25 19.6329 25C19.6409 25 19.6488 25 19.6567 25C19.6646 25 19.6725 25 19.6803 25C19.6881 25 19.6959 25 19.7036 25C19.7113 25 19.719 25 19.7266 25C19.7343 25 19.7419 25 19.7494 25C19.757 25 19.7645 25 19.7719 25C19.7794 25 19.7868 25 19.7942 25C19.8016 25 19.8089 25 19.8162 25C19.8235 25 19.8308 25 19.838 25C19.8452 25 19.8524 25 19.8595 25C19.8666 25 19.8737 25 19.8807 25C19.8877 25 19.8947 25 19.9017 25C19.9086 25 19.9155 25 19.9223 25C19.9292 25 19.936 25 19.9428 25C19.9495 25 19.9563 25 19.9629 25C19.9696 25 19.9762 25 19.9828 25C19.9894 25 19.9959 25 20.0024 25C20.0089 25 20.0153 25 20.0217 25C20.0281 25 20.0345 25 20.0408 25C20.0471 25 20.0534 25 20.0596 25C20.0658 25 20.072 25 20.0781 25C20.0842 25 20.0903 25 20.0963 25C20.1023 25 20.1083 25 20.1143 25C20.1202 25 20.1261 25 20.1319 25C20.1378 25 20.1435 25 20.1493 25C20.155 25 20.1607 25 20.1664 25C20.172 25 20.1776 25 20.1832 25C20.1887 25 20.1942 25 20.1997 25C20.2052 25 20.2106 25 20.2159 25C20.2213 25 20.2266 25 20.2319 25C20.2371 25 20.2423 25 20.2475 25C20.2527 25 20.2578 25 20.2628 25C20.2679 25 20.2729 25 20.2779 25C20.2829 25 20.2878 25 20.2926 25C20.2975 25 20.3023 25 20.3071 25C20.3119 25 20.3166 25 20.3213 25C20.3259 25 20.3306 25 20.3351 25C20.3397 25 20.3442 25 20.3487 25C20.3531 25 20.3576 25 20.3619 25C20.3663 25 20.3706 25 20.3749 25C20.3791 25 20.3834 25 20.3875 25C20.3917 25 20.3958 25 20.3998 25C20.4039 25 20.4079 25 20.4119 25C20.4158 25 20.4197 25 20.4236 25C20.4274 25 20.4312 25 20.435 25C20.4387 25 20.4424 25 20.4461 25C20.4497 25 20.4533 25 20.4568 25C20.4604 25 20.4639 25 20.4673 25C20.4707 25 20.4741 25 20.4774 25C20.4808 25 20.484 25 20.4873 25C20.4905 25 20.4936 25 20.4968 25C20.4999 25 20.5029 25 20.5059 25C20.5089 25 20.5119 25 20.5148 25C20.5177 25 20.5205 25 20.5233 25C20.5261 25 20.5288 25 20.5315 25C20.5342 25 20.5368 25 20.5394 25C20.542 25 20.5445 25 20.5469 25C20.5494 25 20.5518 25 20.5542 25C20.5565 25 20.5588 25 20.5611 25C20.5633 25 20.5655 25 20.5676 25C20.5697 25 20.5718 25 20.5738 25C20.5758 25 20.5778 25 20.5797 25C20.5816 25 20.5835 25 20.5853 25C20.587 25 20.5888 25 20.5905 25C20.5921 25 20.5938 25 20.5953 25C20.5969 25 20.5984 25 20.5999 25C20.6013 25 20.6027 25 20.604 25C20.6054 25 20.6067 25 20.6079 25C20.6091 25 20.6103 25 20.6114 25C20.6125 25 20.6135 25 20.6145 25C20.6155 25 20.6164 25 20.6173 25C20.6182 25 20.619 25 20.6198 25C20.6205 25 20.6212 25 20.6219 25C20.6225 25 20.6231 25 20.6236 25C20.6241 25 20.6246 25 20.625 25V23C20.6246 23 20.6241 23 20.6236 23C20.6231 23 20.6225 23 20.6219 23C20.6212 23 20.6205 23 20.6198 23C20.619 23 20.6182 23 20.6173 23C20.6164 23 20.6155 23 20.6145 23C20.6135 23 20.6125 23 20.6114 23C20.6103 23 20.6091 23 20.6079 23C20.6067 23 20.6054 23 20.604 23C20.6027 23 20.6013 23 20.5999 23C20.5984 23 20.5969 23 20.5953 23C20.5938 23 20.5921 23 20.5905 23C20.5888 23 20.587 23 20.5853 23C20.5835 23 20.5816 23 20.5797 23C20.5778 23 20.5758 23 20.5738 23C20.5718 23 20.5697 23 20.5676 23C20.5655 23 20.5633 23 20.5611 23C20.5588 23 20.5565 23 20.5542 23C20.5518 23 20.5494 23 20.5469 23C20.5445 23 20.542 23 20.5394 23C20.5368 23 20.5342 23 20.5315 23C20.5288 23 20.5261 23 20.5233 23C20.5205 23 20.5177 23 20.5148 23C20.5119 23 20.5089 23 20.5059 23C20.5029 23 20.4999 23 20.4968 23C20.4936 23 20.4905 23 20.4873 23C20.484 23 20.4808 23 20.4774 23C20.4741 23 20.4707 23 20.4673 23C20.4639 23 20.4604 23 20.4568 23C20.4533 23 20.4497 23 20.4461 23C20.4424 23 20.4387 23 20.435 23C20.4312 23 20.4274 23 20.4236 23C20.4197 23 20.4158 23 20.4119 23C20.4079 23 20.4039 23 20.3998 23C20.3958 23 20.3917 23 20.3875 23C20.3834 23 20.3791 23 20.3749 23C20.3706 23 20.3663 23 20.3619 23C20.3576 23 20.3531 23 20.3487 23C20.3442 23 20.3397 23 20.3351 23C20.3306 23 20.3259 23 20.3213 23C20.3166 23 20.3119 23 20.3071 23C20.3023 23 20.2975 23 20.2926 23C20.2878 23 20.2829 23 20.2779 23C20.2729 23 20.2679 23 20.2628 23C20.2578 23 20.2527 23 20.2475 23C20.2423 23 20.2371 23 20.2319 23C20.2266 23 20.2213 23 20.2159 23C20.2106 23 20.2052 23 20.1997 23C20.1942 23 20.1887 23 20.1832 23C20.1776 23 20.172 23 20.1664 23C20.1607 23 20.155 23 20.1493 23C20.1435 23 20.1378 23 20.1319 23C20.1261 23 20.1202 23 20.1143 23C20.1083 23 20.1023 23 20.0963 23C20.0903 23 20.0842 23 20.0781 23C20.072 23 20.0658 23 20.0596 23C20.0534 23 20.0471 23 20.0408 23C20.0345 23 20.0281 23 20.0217 23C20.0153 23 20.0089 23 20.0024 23C19.9959 23 19.9894 23 19.9828 23C19.9762 23 19.9696 23 19.9629 23C19.9563 23 19.9495 23 19.9428 23C19.936 23 19.9292 23 19.9223 23C19.9155 23 19.9086 23 19.9017 23C19.8947 23 19.8877 23 19.8807 23C19.8737 23 19.8666 23 19.8595 23C19.8524 23 19.8452 23 19.838 23C19.8308 23 19.8235 23 19.8162 23C19.8089 23 19.8016 23 19.7942 23C19.7868 23 19.7794 23 19.7719 23C19.7645 23 19.757 23 19.7494 23C19.7419 23 19.7343 23 19.7266 23C19.719 23 19.7113 23 19.7036 23C19.6959 23 19.6881 23 19.6803 23C19.6725 23 19.6646 23 19.6567 23C19.6488 23 19.6409 23 19.6329 23C19.6249 23 19.6169 23 19.6089 23C19.6008 23 19.5927 23 19.5846 23C19.5764 23 19.5682 23 19.56 23C19.5518 23 19.5435 23 19.5352 23C19.5269 23 19.5185 23 19.5102 23C19.5018 23 19.4933 23 19.4849 23C19.4764 23 19.4679 23 19.4593 23C19.4508 23 19.4422 23 19.4336 23C19.4249 23 19.4163 23 19.4076 23C19.3988 23 19.3901 23 19.3813 23C19.3725 23 19.3637 23 19.3548 23C19.346 23 19.337 23 19.3281 23C19.3192 23 19.3102 23 19.3011 23C19.2921 23 19.2831 23 19.274 23C19.2649 23 19.2557 23 19.2465 23C19.2374 23 19.2282 23 19.2189 23C19.2096 23 19.2004 23 19.191 23C19.1817 23 19.1723 23 19.1629 23C19.1535 23 19.1441 23 19.1346 23C19.1251 23 19.1156 23 19.106 23C19.0965 23 19.0869 23 19.0773 23C19.0676 23 19.058 23 19.0483 23C19.0386 23 19.0288 23 19.0191 23C19.0093 23 18.9995 23 18.9896 23C18.9798 23 18.9699 23 18.96 23C18.9501 23 18.9401 23 18.9301 23C18.9201 23 18.9101 23 18.9 23C18.89 23 18.8799 23 18.8697 23C18.8596 23 18.8494 23 18.8392 23C18.829 23 18.8188 23 18.8085 23C18.7982 23 18.7879 23 18.7776 23C18.7673 23 18.7569 23 18.7465 23C18.7361 23 18.7256 23 18.7151 23C18.7047 23 18.6941 23 18.6836 23C18.673 23 18.6625 23 18.6519 23C18.6412 23 18.6306 23 18.6199 23C18.6092 23 18.5985 23 18.5878 23C18.577 23 18.5662 23 18.5554 23C18.5446 23 18.5338 23 18.5229 23C18.512 23 18.5011 23 18.4901 23C18.4792 23 18.4682 23 18.4572 23C18.4462 23 18.4352 23 18.4241 23C18.413 23 18.4019 23 18.3908 23C18.3796 23 18.3685 23 18.3573 23C18.3461 23 18.3348 23 18.3236 23C18.3123 23 18.301 23 18.2897 23C18.2784 23 18.267 23 18.2556 23C18.2442 23 18.2328 23 18.2214 23C18.2099 23 18.1984 23 18.1869 23C18.1754 23 18.1639 23 18.1523 23C18.1407 23 18.1291 23 18.1175 23C18.1059 23 18.0942 23 18.0825 23C18.0708 23 18.0591 23 18.0474 23C18.0356 23 18.0238 23 18.012 23C18.0002 23 17.9884 23 17.9765 23C17.9646 23 17.9528 23 17.9408 23C17.9289 23 17.917 23 17.905 23C17.893 23 17.881 23 17.8689 23C17.8569 23 17.8448 23 17.8328 23C17.8207 23 17.8085 23 17.7964 23C17.7842 23 17.7721 23 17.7599 23C17.7477 23 17.7354 23 17.7232 23C17.7109 23 17.6986 23 17.6863 23C17.674 23 17.6616 23 17.6493 23C17.6369 23 17.6245 23 17.6121 23C17.5997 23 17.5872 23 17.5748 23C17.5623 23 17.5498 23 17.5373 23C17.5247 23 17.5122 23 17.4996 23C17.487 23 17.4744 23 17.4618 23C17.4492 23 17.4365 23 17.4238 23C17.4111 23 17.3984 23 17.3857 23C17.373 23 17.3602 23 17.3474 23C17.3346 23 17.3218 23 17.309 23C17.2962 23 17.2833 23 17.2704 23C17.2575 23 17.2446 23 17.2317 23C17.2188 23 17.2058 23 17.1928 23C17.1799 23 17.1669 23 17.1538 23C17.1408 23 17.1278 23 17.1147 23C17.1016 23 17.0885 23 17.0754 23C17.0623 23 17.0491 23 17.036 23C17.0228 23 17.0096 23 16.9964 23C16.9832 23 16.9699 23 16.9567 23C16.9434 23 16.9301 23 16.9168 23C16.9035 23 16.8902 23 16.8769 23C16.8635 23 16.8501 23 16.8368 23C16.8234 23 16.8099 23 16.7965 23C16.7831 23 16.7696 23 16.7561 23C16.7427 23 16.7292 23 16.7156 23C16.7021 23 16.6886 23 16.675 23C16.6614 23 16.6478 23 16.6342 23C16.6206 23 16.607 23 16.5934 23C16.5797 23 16.566 23 16.5524 23C16.5387 23 16.525 23 16.5112 23C16.4975 23 16.4838 23 16.47 23C16.4562 23 16.4424 23 16.4286 23C16.4148 23 16.401 23 16.3871 23C16.3733 23 16.3594 23 16.3455 23C16.3316 23 16.3177 23 16.3038 23C16.2899 23 16.2759 23 16.262 23C16.248 23 16.234 23 16.22 23C16.206 23 16.192 23 16.178 23C16.164 23 16.1499 23 16.1358 23C16.1218 23 16.1077 23 16.0936 23C16.0795 23 16.0653 23 16.0512 23C16.037 23 16.0229 23 16.0087 23C15.9945 23 15.9803 23 15.9661 23C15.9519 23 15.9377 23 15.9234 23C15.9092 23 15.8949 23 15.8806 23C15.8664 23 15.8521 23 15.8378 23C15.8234 23 15.8091 23 15.7948 23C15.7804 23 15.7661 23 15.7517 23C15.7373 23 15.7229 23 15.7085 23C15.6941 23 15.6797 23 15.6652 23C15.6508 23 15.6363 23 15.6219 23C15.6074 23 15.5929 23 15.5784 23C15.5639 23 15.5494 23 15.5349 23C15.5203 23 15.5058 23 15.4912 23C15.4767 23 15.4621 23 15.4475 23C15.4329 23 15.4183 23 15.4037 23C15.3891 23 15.3744 23 15.3598 23C15.3452 23 15.3305 23 15.3158 23C15.3012 23 15.2865 23 15.2718 23C15.2571 23 15.2424 23 15.2276 23C15.2129 23 15.1982 23 15.1834 23C15.1687 23 15.1539 23 15.1391 23C15.1244 23 15.1096 23 15.0948 23C15.08 23 15.0651 23 15.0503 23C15.0355 23 15.0207 23 15.0058 23C14.991 23 14.9761 23 14.9612 23C14.9463 23 14.9315 23 14.9166 23C14.9017 23 14.8868 23 14.8718 23C14.8569 23 14.842 23 14.827 23C14.8121 23 14.7971 23 14.7822 23C14.7672 23 14.7522 23 14.7373 23C14.7223 23 14.7073 23 14.6923 23C14.6773 23 14.6622 23 14.6472 23C14.6322 23 14.6172 23 14.6021 23C14.5871 23 14.572 23 14.5569 23C14.5419 23 14.5268 23 14.5117 23C14.4966 23 14.4815 23 14.4664 23C14.4513 23 14.4362 23 14.4211 23C14.406 23 14.3908 23 14.3757 23C14.3606 23 14.3454 23 14.3302 23C14.3151 23 14.2999 23 14.2848 23C14.2696 23 14.2544 23 14.2392 23C14.224 23 14.2088 23 14.1936 23C14.1784 23 14.1632 23 14.148 23C14.1328 23 14.1175 23 14.1023 23C14.0871 23 14.0718 23 14.0566 23C14.0413 23 14.0261 23 14.0108 23C13.9955 23 13.9803 23 13.965 23C13.9497 23 13.9344 23 13.9191 23C13.9038 23 13.8885 23 13.8732 23C13.8579 23 13.8426 23 13.8273 23C13.812 23 13.7967 23 13.7814 23C13.766 23 13.7507 23 13.7354 23C13.72 23 13.7047 23 13.6893 23C13.674 23 13.6586 23 13.6433 23C13.6279 23 13.6126 23 13.5972 23C13.5818 23 13.5665 23 13.5511 23C13.5357 23 13.5203 23 13.5049 23C13.4895 23 13.4742 23 13.4588 23C13.4434 23 13.428 23 13.4126 23C13.3972 23 13.3818 23 13.3664 23C13.3509 23 13.3355 23 13.3201 23C13.3047 23 13.2893 23 13.2739 23C13.2584 23 13.243 23 13.2276 23C13.2122 23 13.1967 23 13.1813 23C13.1659 23 13.1504 23 13.135 23C13.1195 23 13.1041 23 13.0887 23C13.0732 23 13.0578 23 13.0423 23C13.0269 23 13.0114 23 12.996 23C12.9805 23 12.9651 23 12.9496 23C12.9342 23 12.9187 23 12.9033 23C12.8878 23 12.8723 23 12.8569 23C12.8414 23 12.826 23 12.8105 23C12.795 23 12.7796 23 12.7641 23C12.7487 23 12.7332 23 12.7177 23C12.7023 23 12.6868 23 12.6713 23C12.6559 23 12.6404 23 12.6249 23C12.6095 23 12.594 23 12.5786 23C12.5631 23 12.5476 23 12.5322 23C12.5167 23 12.5012 23 12.4858 23C12.4703 23 12.4549 23 12.4394 23C12.4239 23 12.4085 23 12.393 23C12.3776 23 12.3621 23 12.3467 23C12.3312 23 12.3158 23 12.3003 23C12.2849 23 12.2694 23 12.254 23C12.2385 23 12.2231 23 12.2076 23C12.1922 23 12.1768 23 12.1613 23C12.1459 23 12.1305 23 12.115 23C12.0996 23 12.0842 23 12.0687 23C12.0533 23 12.0379 23 12.0225 23C12.007 23 11.9916 23 11.9762 23C11.9608 23 11.9454 23 11.93 23C11.9146 23 11.8992 23 11.8838 23C11.8684 23 11.853 23 11.8376 23C11.8222 23 11.8068 23 11.7914 23C11.7761 23 11.7607 23 11.7453 23C11.7299 23 11.7146 23 11.6992 23C11.6838 23 11.6685 23 11.6531 23C11.6378 23 11.6224 23 11.6071 23C11.5917 23 11.5764 23 11.5611 23C11.5457 23 11.5304 23 11.5151 23C11.4998 23 11.4844 23 11.4691 23C11.4538 23 11.4385 23 11.4232 23C11.4079 23 11.3926 23 11.3774 23C11.3621 23 11.3468 23 11.3315 23C11.3162 23 11.301 23 11.2857 23C11.2705 23 11.2552 23 11.24 23C11.2247 23 11.2095 23 11.1943 23C11.179 23 11.1638 23 11.1486 23C11.1334 23 11.1182 23 11.103 23C11.0878 23 11.0726 23 11.0574 23C11.0422 23 11.027 23 11.0119 23C10.9967 23 10.9815 23 10.9664 23C10.9512 23 10.9361 23 10.921 23C10.9058 23 10.8907 23 10.8756 23C10.8605 23 10.8454 23 10.8303 23C10.8152 23 10.8001 23 10.785 23C10.7699 23 10.7549 23 10.7398 23C10.7248 23 10.7097 23 10.6947 23C10.6796 23 10.6646 23 10.6496 23C10.6346 23 10.6196 23 10.6046 23C10.5896 23 10.5746 23 10.5596 23C10.5446 23 10.5297 23 10.5147 23C10.4997 23 10.4848 23 10.4699 23C10.4549 23 10.44 23 10.4251 23C10.4102 23 10.3953 23 10.3804 23C10.3655 23 10.3506 23 10.3358 23C10.3209 23 10.306 23 10.2912 23C10.2764 23 10.2615 23 10.2467 23C10.2319 23 10.2171 23 10.2023 23C10.1875 23 10.1727 23 10.158 23C10.1432 23 10.1284 23 10.1137 23C10.099 23 10.0842 23 10.0695 23C10.0548 23 10.0401 23 10.0254 23C10.0107 23 9.99605 23 9.98139 23C9.96673 23 9.95208 23 9.93745 23C9.92282 23 9.9082 23 9.89359 23C9.87898 23 9.86439 23 9.84982 23C9.83524 23 9.82068 23 9.80613 23C9.79158 23 9.77705 23 9.76253 23C9.74801 23 9.73351 23 9.71902 23C9.70453 23 9.69005 23 9.6756 23C9.66114 23 9.64669 23 9.63227 23C9.61784 23 9.60343 23 9.58903 23C9.57463 23 9.56025 23 9.54589 23C9.53152 23 9.51718 23 9.50284 23C9.48851 23 9.47419 23 9.4599 23C9.4456 23 9.43131 23 9.41705 23C9.40278 23 9.38853 23 9.3743 23C9.36006 23 9.34585 23 9.33165 23C9.31745 23 9.30327 23 9.2891 23C9.27494 23 9.26079 23 9.24666 23C9.23254 23 9.21842 23 9.20433 23C9.19024 23 9.17616 23 9.1621 23C9.14804 23 9.134 23 9.11998 23C9.10596 23 9.09196 23 9.07798 23C9.06399 23 9.05002 23 9.03608 23C9.02213 23 9.0082 23 8.99429 23C8.98038 23 8.96649 23 8.95262 23C8.93875 23 8.9249 23 8.91107 23C8.89723 23 8.88342 23 8.86963 23C8.85584 23 8.84206 23 8.82831 23C8.81456 23 8.80082 23 8.78711 23C8.7734 23 8.7597 23 8.74603 23C8.73236 23 8.71871 23 8.70507 23C8.69144 23 8.67783 23 8.66424 23C8.65065 23 8.63708 23 8.62353 23C8.60999 23 8.59646 23 8.58295 23C8.56945 23 8.55596 23 8.5425 23C8.52904 23 8.5156 23 8.50218 23C8.48876 23 8.47536 23 8.46199 23C8.44861 23 8.43526 23 8.42193 23C8.4086 23 8.39529 23 8.382 23C8.36872 23 8.35545 23 8.34221 23C8.32897 23 8.31575 23 8.30256 23C8.28936 23 8.27619 23 8.26304 23C8.24989 23 8.23676 23 8.22366 23C8.21056 23 8.19748 23 8.18443 23C8.17137 23 8.15834 23 8.14533 23C8.13232 23 8.11934 23 8.10638 23C8.09342 23 8.08049 23 8.06758 23C8.05466 23 8.04178 23 8.02892 23C8.01605 23 8.00322 23 7.9904 23C7.97759 23 7.9648 23 7.95204 23C7.93928 23 7.92654 23 7.91383 23C7.90112 23 7.88843 23 7.87577 23C7.86311 23 7.85047 23 7.83786 23C7.82525 23 7.81267 23 7.80011 23C7.78755 23 7.77502 23 7.76251 23C7.75 23 7.73752 23 7.72507 23C7.71262 23 7.70019 23 7.68779 23C7.67539 23 7.66302 23 7.65067 23C7.63832 23 7.62601 23 7.61371 23C7.60142 23 7.58916 23 7.57692 23C7.56468 23 7.55247 23 7.54029 23C7.5281 23 7.51595 23 7.50382 23C7.49169 23 7.47959 23 7.46752 23C7.45545 23 7.44341 23 7.43139 23C7.41938 23 7.40739 23 7.39544 23C7.38348 23 7.37155 23 7.35965 23C7.34775 23 7.33588 23 7.32403 23C7.31219 23 7.30038 23 7.28859 23C7.27681 23 7.26505 23 7.25333 23C7.2416 23 7.2299 23 7.21824 23C7.20657 23 7.19494 23 7.18333 23C7.17172 23 7.16015 23 7.1486 23C7.13705 23 7.12554 23 7.11405 23C7.10256 23 7.09111 23 7.07968 23C7.06826 23 7.05686 23 7.0455 23C7.03414 23 7.02281 23 7.01151 23C7.0002 23 6.98893 23 6.97769 23C6.96646 23 6.95525 23 6.94407 23C6.9329 23 6.92175 23 6.91064 23C6.89953 23 6.88845 23 6.8774 23C6.86635 23 6.85534 23 6.84435 23C6.83337 23 6.82242 23 6.8115 23C6.80058 23 6.78969 23 6.77884 23C6.76798 23 6.75716 23 6.74637 23C6.73559 23 6.72483 23 6.71411 23C6.70339 23 6.6927 23 6.68204 23C6.67139 23 6.66076 23 6.65018 23C6.63959 23 6.62903 23 6.61851 23C6.60799 23 6.59751 23 6.58705 23C6.5766 23 6.56618 23 6.5558 23C6.54542 23 6.53507 23 6.52475 23C6.51444 23 6.50416 23 6.49391 23C6.48367 23 6.47346 23 6.46328 23C6.4531 23 6.44296 23 6.43286 23C6.42275 23 6.41268 23 6.40265 23C6.39262 23 6.38262 23 6.37266 23C6.36269 23 6.35277 23 6.34287 23C6.33298 23 6.32313 23 6.31331 23C6.30349 23 6.29371 23 6.28396 23C6.27422 23 6.26451 23 6.25484 23C6.24516 23 6.23553 23 6.22593 23C6.21633 23 6.20677 23 6.19724 23C6.18772 23 6.17823 23 6.16878 23C6.15933 23 6.14992 23 6.14054 23C6.13117 23 6.12183 23 6.11253 23C6.10323 23 6.09397 23 6.08474 23C6.07552 23 6.06633 23 6.05719 23C6.04804 23 6.03893 23 6.02986 23C6.02079 23 6.01176 23 6.00276 23C5.99377 23 5.98482 23 5.9759 23C5.96699 23 5.95811 23 5.94928 23C5.94044 23 5.93164 23 5.92288 23C5.91413 23 5.90541 23 5.89673 23C5.88805 23 5.87941 23 5.87081 23C5.86221 23 5.85365 23 5.84514 23C5.83662 23 5.82814 23 5.8197 23C5.81126 23 5.80286 23 5.79451 23C5.78615 23 5.77783 23 5.76956 23C5.76128 23 5.75305 23 5.74486 23C5.73666 23 5.72851 23 5.7204 23C5.71229 23 5.70422 23 5.69619 23C5.68816 23 5.68018 23 5.67223 23C5.66429 23 5.65639 23 5.64853 23C5.64067 23 5.63285 23 5.62507 23C5.6173 23 5.60956 23 5.60187 23C5.59418 23 5.58653 23 5.57893 23C5.57132 23 5.56376 23 5.55624 23C5.54872 23 5.54124 23 5.53381 23C5.52637 23 5.51898 23 5.51163 23C5.50429 23 5.49698 23 5.48972 23C5.48246 23 5.47525 23 5.46808 23C5.4609 23 5.45378 23 5.44669 23C5.43961 23 5.43257 23 5.42557 23C5.41858 23 5.41162 23 5.40472 23C5.39781 23 5.39095 23 5.38413 23C5.37732 23 5.37054 23 5.36382 23C5.35709 23 5.35041 23 5.34377 23C5.33713 23 5.33054 23 5.324 23C5.31745 23 5.31095 23 5.3045 23C5.29804 23 5.29163 23 5.28527 23C5.27891 23 5.27259 23 5.26632 23C5.26005 23 5.25383 23 5.24765 23C5.24147 23 5.23534 23 5.22926 23C5.22317 23 5.21714 23 5.21115 23C5.20516 23 5.19921 23 5.19332 23C5.18742 23 5.18157 23 5.17577 23C5.16997 23 5.16421 23 5.15851 23C5.1528 23 5.14714 23 5.14153 23C5.13592 23 5.13036 23 5.12484 23C5.11933 23 5.11386 23 5.10844 23C5.10302 23 5.09765 23 5.09233 23C5.08701 23 5.08174 23 5.07651 23C5.07129 23 5.06611 23 5.06099 23C5.05586 23 5.05078 23 5.04576 23C5.04073 23 5.03575 23 5.03082 23C5.02589 23 5.02101 23 5.01618 23C5.01135 23 5.00657 23 5.00184 23C4.99711 23 4.99243 23 4.9878 23C4.98317 23 4.97859 23 4.97406 23C4.96953 23 4.96506 23 4.96063 23C4.9562 23 4.95182 23 4.9475 23C4.94317 23 4.93889 23 4.93467 23C4.93045 23 4.92627 23 4.92215 23C4.91803 23 4.91396 23 4.90994 23C4.90592 23 4.90196 23 4.89804 23C4.89412 23 4.89026 23 4.88645 23C4.88264 23 4.87888 23 4.87517 23C4.87147 23 4.86781 23 4.86421 23C4.86061 23 4.85706 23 4.85356 23C4.85006 23 4.84662 23 4.84323 23C4.83984 23 4.8365 23 4.83322 23C4.82993 23 4.8267 23 4.82352 23C4.82035 23 4.81722 23 4.81415 23C4.81108 23 4.80806 23 4.8051 23C4.80214 23 4.79923 23 4.79637 23C4.79352 23 4.79072 23 4.78797 23C4.78523 23 4.78253 23 4.7799 23C4.77726 23 4.77468 23 4.77215 23C4.76962 23 4.76715 23 4.76473 23C4.76231 23 4.75995 23 4.75764 23C4.75534 23 4.75309 23 4.75089 23C4.74869 23 4.74655 23 4.74447 23C4.74238 23 4.74035 23 4.73838 23C4.73641 23 4.73449 23 4.73263 23C4.73077 23 4.72897 23 4.72722 23C4.72547 23 4.72378 23 4.72214 23C4.72051 23 4.71893 23 4.71741 23C4.71589 23 4.71443 23 4.71302 23C4.71161 23 4.71026 23 4.70897 23C4.70768 23 4.70645 23 4.70527 23C4.70409 23 4.70297 23 4.70191 23C4.70085 23 4.69985 23 4.6989 23C4.69796 23 4.69707 23 4.69624 23C4.69541 23 4.69464 23 4.69393 23C4.69322 23 4.69257 23 4.69197 23C4.69138 23 4.69084 23 4.69037 23C4.68989 23 4.68947 23 4.68911 23C4.68876 23 4.68846 23 4.68822 23C4.68798 23 4.6878 23 4.68768 23C4.68756 23 4.6875 23 4.6875 24ZM20.625 25C26.332 25 31 20.4259 31 14.7692H29C29 19.2922 25.2568 23 20.625 23V25ZM31 14.7692C31 9.11254 26.332 4.53846 20.625 4.53846V6.53846C25.2568 6.53846 29 10.2462 29 14.7692H31ZM12.0384 10.0769H4.6875V12.0769H12.0384V10.0769ZM4.6875 10.0769C4.70129 10.0769 4.71628 10.0833 4.72664 10.0935C4.73725 10.104 4.75 10.1259 4.75 10.1538H2.75C2.75 11.2293 3.63333 12.0769 4.6875 12.0769V10.0769ZM4.75 10.1538V8.30769H2.75V10.1538H4.75ZM4.75 8.30769C4.75 8.33566 4.73725 8.35755 4.72664 8.36799C4.71628 8.37819 4.70129 8.38461 4.6875 8.38461V6.38462C3.63333 6.38462 2.75 7.23223 2.75 8.30769H4.75ZM4.6875 8.38461H15.0234V6.38462H4.6875V8.38461ZM14.43 6.57977C13.0036 7.63155 11.853 9.03429 11.1248 10.6703L12.952 11.4836C13.5345 10.1749 14.4595 9.04291 15.6169 8.18946L14.43 6.57977ZM2.875 2.76923C2.875 2.7972 2.86225 2.81909 2.85164 2.82953C2.84128 2.83973 2.82629 2.84615 2.8125 2.84615V0.846154C1.75833 0.846154 0.875 1.69377 0.875 2.76923H2.875ZM2.8125 2.84615H17.8125V0.846154H2.8125V2.84615ZM17.8125 2.84615C17.7987 2.84615 17.7837 2.83973 17.7734 2.82953C17.7628 2.81909 17.75 2.7972 17.75 2.76923H19.75C19.75 1.69377 18.8667 0.846154 17.8125 0.846154V2.84615ZM17.75 2.76923V4.61538H19.75V2.76923H17.75ZM17.75 4.61538C17.75 4.58741 17.7628 4.56553 17.7734 4.55509C17.7837 4.54489 17.7987 4.53846 17.8125 4.53846V6.53846C18.8667 6.53846 19.75 5.69085 19.75 4.61538H17.75ZM2.8125 4.53846C2.82629 4.53846 2.84128 4.54489 2.85164 4.55509C2.86225 4.56553 2.875 4.58741 2.875 4.61538H0.875C0.875 5.69085 1.75833 6.53846 2.8125 6.53846V4.53846ZM2.875 4.61538V2.76923H0.875V4.61538H2.875ZM2.875 13.8462C2.875 13.8741 2.86225 13.896 2.85164 13.9065C2.84128 13.9167 2.82629 13.9231 2.8125 13.9231V11.9231C1.75833 11.9231 0.875 12.7707 0.875 13.8462H2.875ZM10.4602 12.7199C10.3228 13.3819 10.25 14.0676 10.25 14.7692H12.25C12.25 14.2063 12.3084 13.6568 12.4185 13.1263L10.4602 12.7199ZM10.25 14.7692C10.25 15.4709 10.3228 16.1565 10.4602 16.8186L12.4185 16.4122C12.3084 15.8816 12.25 15.3322 12.25 14.7692H10.25ZM2.8125 15.6154C2.82629 15.6154 2.84128 15.6218 2.85164 15.632C2.86225 15.6425 2.875 15.6643 2.875 15.6923H0.875C0.875 16.7678 1.75833 17.6154 2.8125 17.6154V15.6154ZM2.875 15.6923V13.8462H0.875V15.6923H2.875ZM4.6875 21.1538C4.70129 21.1538 4.71628 21.1603 4.72664 21.1705C4.73725 21.1809 4.75 21.2028 4.75 21.2308H2.75C2.75 22.3062 3.63333 23.1538 4.6875 23.1538V21.1538ZM4.75 21.2308V19.3846H2.75V21.2308H4.75ZM4.75 19.3846C4.75 19.4126 4.73725 19.4345 4.72664 19.4449C4.71628 19.4551 4.70129 19.4615 4.6875 19.4615V17.4615C3.63333 17.4615 2.75 18.3092 2.75 19.3846H4.75ZM4.6875 19.4615H12.0384V17.4615H4.6875V19.4615ZM11.1248 18.8682C11.853 20.5042 13.0037 21.907 14.4312 22.9589L15.6176 21.3488C14.4594 20.4954 13.5345 19.3635 12.952 18.0549L11.1248 18.8682ZM15.0244 21.1538H4.6875V23.1538H15.0244V21.1538ZM20.625 21.1538C17.0273 21.1538 14.125 18.2741 14.125 14.7692H12.125C12.125 19.4078 15.9521 23.1538 20.625 23.1538V21.1538ZM14.125 14.7692C14.125 11.2644 17.0273 8.38461 20.625 8.38461V6.38462C15.9521 6.38462 12.125 10.1307 12.125 14.7692H14.125ZM20.625 8.38461C24.2227 8.38461 27.125 11.2644 27.125 14.7692H29.125C29.125 10.1307 25.2979 6.38462 20.625 6.38462V8.38461ZM27.125 14.7692C27.125 18.2741 24.2227 21.1538 20.625 21.1538V23.1538C25.2979 23.1538 29.125 19.4078 29.125 14.7692H27.125ZM20.625 13H22.5V11H20.625V13ZM22.5 13C23.5551 13 24.4375 12.1533 24.4375 11.0769H22.4375C22.4375 11.0504 22.4497 11.0283 22.4612 11.017C22.4724 11.0059 22.4877 11 22.5 11V13ZM24.4375 11.0769C24.4375 10.0005 23.5551 9.15385 22.5 9.15385V11.1538C22.4877 11.1538 22.4724 11.1479 22.4612 11.1369C22.4497 11.1256 22.4375 11.1034 22.4375 11.0769H24.4375ZM22.5 9.15385H21.5625V11.1538H22.5V9.15385ZM22.5625 10.1538C22.5625 9.07746 21.6801 8.23077 20.625 8.23077V10.2308C20.6127 10.2308 20.5974 10.2248 20.5862 10.2138C20.5747 10.2025 20.5625 10.1804 20.5625 10.1538H22.5625ZM20.625 8.23077C19.5699 8.23077 18.6875 9.07746 18.6875 10.1538H20.6875C20.6875 10.1804 20.6753 10.2025 20.6638 10.2138C20.6526 10.2248 20.6373 10.2308 20.625 10.2308V8.23077ZM18.6875 10.1538V10.3237H20.6875V10.1538H18.6875ZM19.3562 9.38016C17.8955 9.89304 16.8125 11.2674 16.8125 12.9231H18.8125C18.8125 12.175 19.3027 11.5187 20.0188 11.2672L19.3562 9.38016ZM16.8125 12.9231C16.8125 15.0167 18.5368 16.6923 20.625 16.6923V14.6923C19.612 14.6923 18.8125 13.883 18.8125 12.9231H16.8125ZM20.625 16.6923C20.6112 16.6923 20.5962 16.6859 20.5859 16.6757C20.5753 16.6652 20.5625 16.6434 20.5625 16.6154H22.5625C22.5625 15.5399 21.6792 14.6923 20.625 14.6923V16.6923ZM20.5625 16.6154C20.5625 16.5874 20.5753 16.5655 20.5859 16.5551C20.5962 16.5449 20.6112 16.5385 20.625 16.5385V18.5385C21.6792 18.5385 22.5625 17.6908 22.5625 16.6154H20.5625ZM20.625 16.5385H18.75V18.5385H20.625V16.5385ZM18.75 16.5385C17.6949 16.5385 16.8125 17.3852 16.8125 18.4615H18.8125C18.8125 18.4881 18.8003 18.5102 18.7888 18.5215C18.7776 18.5325 18.7623 18.5385 18.75 18.5385V16.5385ZM16.8125 18.4615C16.8125 19.5379 17.6949 20.3846 18.75 20.3846V18.3846C18.7623 18.3846 18.7776 18.3906 18.7888 18.4016C18.8003 18.4129 18.8125 18.435 18.8125 18.4615H16.8125ZM18.75 20.3846H19.6875V18.3846H18.75V20.3846ZM18.6875 19.3846C18.6875 20.461 19.5699 21.3077 20.625 21.3077V19.3077C20.6373 19.3077 20.6526 19.3136 20.6638 19.3247C20.6753 19.3359 20.6875 19.3581 20.6875 19.3846H18.6875ZM20.625 21.3077C21.6801 21.3077 22.5625 20.461 22.5625 19.3846H20.5625C20.5625 19.3581 20.5747 19.3359 20.5862 19.3247C20.5974 19.3136 20.6127 19.3077 20.625 19.3077V21.3077ZM22.5625 19.3846V19.2148H20.5625V19.3846H22.5625ZM21.8938 20.1583C23.3545 19.6454 24.4375 18.271 24.4375 16.6154H22.4375C22.4375 17.3634 21.9473 18.0198 21.2312 18.2712L21.8938 20.1583ZM24.4375 16.6154C24.4375 14.5218 22.7132 12.8462 20.625 12.8462V14.8462C21.638 14.8462 22.4375 15.6555 22.4375 16.6154H24.4375ZM20.625 12.8462C20.6388 12.8462 20.6538 12.8526 20.6641 12.8628C20.6747 12.8732 20.6875 12.8951 20.6875 12.9231H18.6875C18.6875 13.9985 19.5708 14.8462 20.625 14.8462V12.8462ZM20.6875 12.9231C20.6875 12.951 20.6747 12.9729 20.6641 12.9834C20.6538 12.9936 20.6388 13 20.625 13V11C19.5708 11 18.6875 11.8476 18.6875 12.9231H20.6875ZM17.8125 4.53846H2.8125V6.53846H17.8125V4.53846ZM2.8125 13.9231H11.4394V11.9231H2.8125V13.9231ZM11.4394 15.6154H2.8125V17.6154H11.4394V15.6154Z" fill="#918BC5" mask="url(#path-1-inside-1_1212_1409)"/>
</svg>
